<?xml version="1.0" encoding="utf-8"?>
<!-- Generator: Adobe Illustrator 19.0.0, SVG Export Plug-In . SVG Version: 6.00 Build 0)  -->
<svg version="1.1" id="Layer_1" xmlns="http://www.w3.org/2000/svg" xmlns:xlink="http://www.w3.org/1999/xlink" x="0px" y="0px"
	 viewBox="-290 382 30 30" style="enable-background:new -290 382 30 30;" xml:space="preserve">
<style type="text/css">
	.st0{fill:#FFFFFF;}
	.st1{fill:#8F8F8F;}
</style>
<g>
	<path class="st0" d="M-289.7,382.3c10,0,20,0,30,0c0,10,0,20,0,30c-10,0-20,0-30,0C-289.7,402.3-289.7,392.3-289.7,382.3z
		 M-274.8,403.9c0.4-0.3,0.6-0.4,0.8-0.7c3.7-3.7,7.4-7.4,11.1-11.1c0.3-0.3,0.3-0.8,0.4-1.2c-0.4,0.2-0.9,0.3-1.2,0.6
		c-2.1,2-4.1,4.1-6.2,6.1c-1.6,1.6-3.2,3.3-5.1,5.3c-0.6-0.8-1-1.5-1.5-2c-3.2-3.2-6.3-6.4-9.5-9.5c-0.3-0.2-0.7-0.3-1.1-0.4
		c0.1,0.3,0.1,0.8,0.3,1C-282.8,395.9-278.8,399.9-274.8,403.9z"/>
	<path class="st1" d="M-274.8,403.9c-4.1-4.1-8-8-12-12c-0.2-0.2-0.2-0.6-0.3-1c0.4,0.1,0.8,0.2,1.1,0.4c3.2,3.2,6.4,6.3,9.5,9.5
		c0.5,0.5,0.9,1.2,1.5,2c1.9-2,3.5-3.6,5.1-5.3c2-2.1,4.1-4.1,6.2-6.1c0.3-0.3,0.8-0.4,1.2-0.6c-0.1,0.4-0.2,0.9-0.4,1.2
		c-3.7,3.7-7.4,7.4-11.1,11.1C-274.2,403.5-274.4,403.6-274.8,403.9z"/>
</g>
</svg>
