<?xml version="1.0" encoding="utf-8"?>
<!-- Generator: Adobe Illustrator 19.0.0, SVG Export Plug-In . SVG Version: 6.00 Build 0)  -->
<svg version="1.1" id="Layer_1" xmlns="http://www.w3.org/2000/svg" xmlns:xlink="http://www.w3.org/1999/xlink" x="0px" y="0px"
	 viewBox="-282 405.9 30 30" style="enable-background:new -282 405.9 30 30;" xml:space="preserve">
<style type="text/css">
	.st0{fill:#FFFFFF;}
	.st1{fill:#5B5B5B;}
</style>
<g>
	<path class="st0" d="M-281.7,406.2c10,0,20,0,30,0c0,10,0,20,0,30c-10,0-20,0-30,0C-281.7,426.2-281.7,416.2-281.7,406.2z
		 M-266.8,427.8c0.4-0.3,0.6-0.4,0.8-0.7c3.7-3.7,7.4-7.4,11.1-11.1c0.3-0.3,0.3-0.8,0.4-1.2c-0.4,0.2-0.9,0.3-1.2,0.6
		c-2.1,2-4.1,4.1-6.2,6.1c-1.6,1.6-3.2,3.3-5.1,5.3c-0.6-0.8-1-1.5-1.5-2c-3.2-3.2-6.3-6.4-9.5-9.5c-0.3-0.2-0.7-0.3-1.1-0.4
		c0.1,0.3,0.1,0.8,0.3,1C-274.8,419.8-270.8,423.8-266.8,427.8z"/>
	<path class="st1" d="M-266.8,427.8c-4.1-4.1-8-8-12-12c-0.2-0.2-0.2-0.6-0.3-1c0.4,0.1,0.8,0.2,1.1,0.4c3.2,3.2,6.4,6.3,9.5,9.5
		c0.5,0.5,0.9,1.2,1.5,2c1.9-2,3.5-3.6,5.1-5.3c2-2.1,4.1-4.1,6.2-6.1c0.3-0.3,0.8-0.4,1.2-0.6c-0.1,0.4-0.2,0.9-0.4,1.2
		c-3.7,3.7-7.4,7.4-11.1,11.1C-266.2,427.4-266.4,427.5-266.8,427.8z"/>
</g>
</svg>
