<?xml version="1.0" encoding="UTF-8"?>
<svg width="17px" height="17px" viewBox="0 0 17 17" version="1.1" xmlns="http://www.w3.org/2000/svg" xmlns:xlink="http://www.w3.org/1999/xlink">
    <title>Group 25</title>
    <g id="Page-1" stroke="none" stroke-width="1" fill="none" fill-rule="evenodd">
        <g id="01.-Home-Desktop-v11" transform="translate(-711.000000, -2933.000000)" fill="#D7282F" fill-rule="nonzero">
            <g id="Group-38" transform="translate(0.000000, 2364.000000)">
                <g id="Group-27" transform="translate(637.000000, 520.000000)">
                    <g id="Group-25" transform="translate(74.000000, 49.000000)">
                        <path d="M8.48398577,1.54739933 C10.7437722,1.54739933 11.0142349,1.54739933 11.9074733,1.59731544 C12.4448082,1.60200479 12.9771704,1.70095523 13.480427,1.88968121 C14.2169624,2.17625467 14.7993757,2.75976729 15.0854093,3.49769295 C15.2737797,4.00189957 15.3725437,4.53526661 15.3772242,5.07361577 C15.4199288,5.96854027 15.4270463,6.23951342 15.4270463,8.50356544 C15.4270463,10.7676174 15.4270463,11.0385906 15.3772242,11.9335151 C15.3725437,12.4718643 15.2737797,13.0052313 15.0854093,13.5094379 C14.7993757,14.2473636 14.2169624,14.8308762 13.480427,15.1174497 C12.9771704,15.3061756 12.4448082,15.4051261 11.9074733,15.4098154 C11.0142349,15.4526007 10.747331,15.4597315 8.48398577,15.4597315 C6.22064057,15.4597315 5.95373665,15.4597315 5.06049822,15.4098154 C4.52316333,15.4051261 3.99080116,15.3061756 3.48754448,15.1174497 C2.75704036,14.8259342 2.18153483,14.2415855 1.90035587,13.5058725 C1.71198546,13.0016659 1.61322144,12.4682988 1.60854093,11.9299497 C1.54448399,11.0350252 1.54448399,10.764052 1.54448399,8.5 C1.54448399,6.23594799 1.54448399,5.96497483 1.59430605,5.07005034 C1.60353754,4.53085184 1.7071246,3.99745758 1.90035587,3.49412752 C2.18647641,2.76651742 2.76130523,2.19060357 3.48754448,1.90394295 C3.99080116,1.71521698 4.52316333,1.61626653 5.06049822,1.61157718 C5.95373665,1.54739933 6.22419929,1.54739933 8.48398577,1.54739933 M8.48398577,0.0178271812 C6.18505338,0.0178271812 5.89679715,0.0178271812 4.99288256,0.0677432886 C4.2890232,0.0868682957 3.59350534,0.225511083 2.93594306,0.477768456 C1.78834579,0.915753187 0.881999413,1.82381037 0.444839858,2.97357383 C0.197919752,3.63322663 0.0643564494,4.33003122 0.0498220641,5.03439597 C0.0106761566,5.94001678 0,6.22881711 0,8.53208893 C0,10.8353607 0,11.1241611 0.0498220641,12.0297819 C0.0781785844,12.7251635 0.222522013,13.4108838 0.476868327,14.0585151 C0.914027882,15.2082786 1.82037426,16.1163357 2.96797153,16.5543205 C3.62638153,16.8017067 4.32187332,16.9355221 5.02491103,16.9500839 C5.92882562,16.9893037 6.21708185,17 8.51601423,17 C10.8149466,17 11.1032028,17 12.0071174,16.9500839 C12.7101551,16.9355221 13.4056469,16.8017067 14.0640569,16.5543205 C15.2116542,16.1163357 16.1180006,15.2082786 16.5551601,14.0585151 C16.8020802,13.3988623 16.9356436,12.7020577 16.9501779,11.997693 C16.9893238,11.0920721 17,10.8032718 17,8.5 C17,6.19672819 17,5.90792785 16.9501779,5.00230705 C16.9356436,4.2979423 16.8020802,3.6011377 16.5551601,2.9414849 C16.1180006,1.79172145 15.2116542,0.883664261 14.0640569,0.44567953 C13.4056469,0.198293342 12.7101551,0.0644779276 12.0071174,0.0499161074 C11.1032028,0.0106963087 10.8149466,0 8.51601423,0 L8.48398577,0.0178271812 Z" id="Shape-Copy"></path>
                        <path d="M8.50006577,4 C6.68001226,4 5.03917295,5.09637378 4.34266863,6.77788396 C3.64616431,8.45939413 4.03115958,10.3948961 5.31813176,11.6818682 C6.60510393,12.9688404 8.54060587,13.3538357 10.222116,12.6573314 C11.9036262,11.960827 13,10.3199877 13,8.49993423 C13,6.01468918 10.9853108,4 8.50006577,4 Z M8.50006577,11.4201043 C6.88730036,11.4201043 5.57989568,10.1126996 5.57989568,8.49993423 C5.57989568,6.88716883 6.88730036,5.57976415 8.50006577,5.57976415 C10.1128312,5.57976415 11.4202359,6.88716883 11.4202359,8.49993423 C11.4202359,10.1126996 10.1128312,11.4201043 8.50006577,11.4201043 Z" id="Shape-Copy-2"></path>
                        <circle id="Oval-Copy" cx="13" cy="4" r="1"></circle>
                    </g>
                </g>
            </g>
        </g>
    </g>
</svg>