<?xml version="1.0" encoding="UTF-8"?>
<svg width="30px" height="30px" viewBox="0 0 30 30" version="1.1" xmlns="http://www.w3.org/2000/svg" xmlns:xlink="http://www.w3.org/1999/xlink">
    <!-- Generator: Sketch 51.3 (57544) - http://www.bohemiancoding.com/sketch -->
    <title>Group 25</title>
    <desc>Created with Sketch.</desc>
    <defs></defs>
    <g id="Page-1" stroke="none" stroke-width="1" fill="none" fill-rule="evenodd">
        <g id="01.-Home-Desktop-v11" transform="translate(-704.000000, -2926.000000)" fill-rule="nonzero">
            <g id="Group-38" transform="translate(0.000000, 2364.000000)">
                <g id="Group-27" transform="translate(637.000000, 520.000000)">
                    <g id="Group-25" transform="translate(67.000000, 42.000000)">
                        <circle id="back-copy-2" fill="#D7282F" cx="15" cy="15" r="15"></circle>
                        <path d="M15.4839858,8.54739933 C17.7437722,8.54739933 18.0142349,8.54739933 18.9074733,8.59731544 C19.4448082,8.60200479 19.9771704,8.70095523 20.480427,8.88968121 C21.2169624,9.17625467 21.7993757,9.75976729 22.0854093,10.497693 C22.2737797,11.0018996 22.3725437,11.5352666 22.3772242,12.0736158 C22.4199288,12.9685403 22.4270463,13.2395134 22.4270463,15.5035654 C22.4270463,17.7676174 22.4270463,18.0385906 22.3772242,18.9335151 C22.3725437,19.4718643 22.2737797,20.0052313 22.0854093,20.5094379 C21.7993757,21.2473636 21.2169624,21.8308762 20.480427,22.1174497 C19.9771704,22.3061756 19.4448082,22.4051261 18.9074733,22.4098154 C18.0142349,22.4526007 17.747331,22.4597315 15.4839858,22.4597315 C13.2206406,22.4597315 12.9537367,22.4597315 12.0604982,22.4098154 C11.5231633,22.4051261 10.9908012,22.3061756 10.4875445,22.1174497 C9.75704036,21.8259342 9.18153483,21.2415855 8.90035587,20.5058725 C8.71198546,20.0016659 8.61322144,19.4682988 8.60854093,18.9299497 C8.54448399,18.0350252 8.54448399,17.764052 8.54448399,15.5 C8.54448399,13.235948 8.54448399,12.9649748 8.59430605,12.0700503 C8.60353754,11.5308518 8.7071246,10.9974576 8.90035587,10.4941275 C9.18647641,9.76651742 9.76130523,9.19060357 10.4875445,8.90394295 C10.9908012,8.71521698 11.5231633,8.61626653 12.0604982,8.61157718 C12.9537367,8.54739933 13.2241993,8.54739933 15.4839858,8.54739933 M15.4839858,7.01782718 C13.1850534,7.01782718 12.8967972,7.01782718 11.9928826,7.06774329 C11.2890232,7.0868683 10.5935053,7.22551108 9.93594306,7.47776846 C8.78834579,7.91575319 7.88199941,8.82381037 7.44483986,9.97357383 C7.19791975,10.6332266 7.06435645,11.3300312 7.04982206,12.034396 C7.01067616,12.9400168 7,13.2288171 7,15.5320889 C7,17.8353607 7,18.1241611 7.04982206,19.0297819 C7.07817858,19.7251635 7.22252201,20.4108838 7.47686833,21.0585151 C7.91402788,22.2082786 8.82037426,23.1163357 9.96797153,23.5543205 C10.6263815,23.8017067 11.3218733,23.9355221 12.024911,23.9500839 C12.9288256,23.9893037 13.2170819,24 15.5160142,24 C17.8149466,24 18.1032028,24 19.0071174,23.9500839 C19.7101551,23.9355221 20.4056469,23.8017067 21.0640569,23.5543205 C22.2116542,23.1163357 23.1180006,22.2082786 23.5551601,21.0585151 C23.8020802,20.3988623 23.9356436,19.7020577 23.9501779,18.997693 C23.9893238,18.0920721 24,17.8032718 24,15.5 C24,13.1967282 24,12.9079279 23.9501779,12.002307 C23.9356436,11.2979423 23.8020802,10.6011377 23.5551601,9.9414849 C23.1180006,8.79172145 22.2116542,7.88366426 21.0640569,7.44567953 C20.4056469,7.19829334 19.7101551,7.06447793 19.0071174,7.04991611 C18.1032028,7.01069631 17.8149466,7 15.5160142,7 L15.4839858,7.01782718 Z" id="Shape-Copy" fill="#FFFFFF"></path>
                        <path d="M15.5000658,11 C13.6800123,11 12.039173,12.0963738 11.3426686,13.777884 C10.6461643,15.4593941 11.0311596,17.3948961 12.3181318,18.6818682 C13.6051039,19.9688404 15.5406059,20.3538357 17.222116,19.6573314 C18.9036262,18.960827 20,17.3199877 20,15.4999342 C20,13.0146892 17.9853108,11 15.5000658,11 Z M15.5000658,18.4201043 C13.8873004,18.4201043 12.5798957,17.1126996 12.5798957,15.4999342 C12.5798957,13.8871688 13.8873004,12.5797641 15.5000658,12.5797641 C17.1128312,12.5797641 18.4202359,13.8871688 18.4202359,15.4999342 C18.4202359,17.1126996 17.1128312,18.4201043 15.5000658,18.4201043 Z" id="Shape-Copy-2" fill="#FFFFFF"></path>
                        <circle id="Oval-Copy" fill="#FFFFFF" cx="20" cy="11" r="1"></circle>
                    </g>
                </g>
            </g>
        </g>
    </g>
</svg>