<?xml version="1.0" encoding="utf-8"?>
<!-- Generator: Adobe Illustrator 19.0.0, SVG Export Plug-In . SVG Version: 6.00 Build 0)  -->
<svg version="1.1" id="Layer_1" xmlns="http://www.w3.org/2000/svg" xmlns:xlink="http://www.w3.org/1999/xlink" x="0px" y="0px"
	 viewBox="-290 354.8 57.2 57.2" style="enable-background:new -290 354.8 57.2 57.2;" xml:space="preserve">
<style type="text/css">
	.st0{fill:#9A8D7A;}
	.st1{fill:#FFFFFF;}
</style>
<title>Group 25</title>
<desc>Created with Sketch.</desc>
<g id="Group-25" transform="translate(67.000000, 42.000000)">
	<circle id="back-copy-2" class="st0" cx="-329.2" cy="342.2" r="27.8"/>
	<path id="Shape-Copy" class="st1" d="M-328.3,330.3c4.2,0,4.7,0,6.3,0.1c1,0,2,0.2,2.9,0.5c1.4,0.5,2.4,1.6,3,3
		c0.3,0.9,0.5,1.9,0.5,2.9c0.1,1.7,0.1,2.2,0.1,6.4s0,4.7-0.1,6.4c0,1-0.2,2-0.5,2.9c-0.5,1.4-1.6,2.4-3,3c-0.9,0.3-1.9,0.5-2.9,0.5
		c-1.7,0.1-2.1,0.1-6.3,0.1s-4.7,0-6.3-0.1c-1,0-2-0.2-2.9-0.5c-1.4-0.5-2.4-1.6-2.9-3c-0.3-0.9-0.5-1.9-0.5-2.9
		c-0.1-1.7-0.1-2.2-0.1-6.4c0-4.2,0-4.7,0.1-6.4c0-1,0.2-2,0.6-2.9c0.5-1.3,1.6-2.4,2.9-2.9c0.9-0.3,1.9-0.5,2.9-0.5
		C-333,330.3-332.5,330.3-328.3,330.3 M-328.3,327.4c-4.3,0-4.8,0-6.5,0.1c-1.3,0-2.6,0.3-3.8,0.8c-2.1,0.8-3.8,2.5-4.6,4.6
		c-0.5,1.2-0.7,2.5-0.7,3.8c-0.1,1.7-0.1,2.2-0.1,6.5c0,4.3,0,4.8,0.1,6.5c0.1,1.3,0.3,2.6,0.8,3.8c0.8,2.1,2.5,3.8,4.6,4.6
		c1.2,0.5,2.5,0.7,3.8,0.7c1.7,0.1,2.2,0.1,6.5,0.1s4.8,0,6.5-0.1c1.3,0,2.6-0.3,3.8-0.7c2.1-0.8,3.8-2.5,4.6-4.6
		c0.5-1.2,0.7-2.5,0.7-3.8c0.1-1.7,0.1-2.2,0.1-6.5c0-4.3,0-4.8-0.1-6.5c0-1.3-0.3-2.6-0.7-3.8c-0.8-2.1-2.5-3.8-4.6-4.6
		c-1.2-0.5-2.5-0.7-3.8-0.7C-323.5,327.4-324,327.4-328.3,327.4L-328.3,327.4z"/>
	<path id="Shape-Copy-2" class="st1" d="M-328.3,334.8c-3.4,0-6.4,2-7.7,5.1c-1.3,3.1-0.6,6.7,1.8,9.1c2.4,2.4,6,3.1,9.1,1.8
		c3.1-1.3,5.1-4.3,5.1-7.7C-320,338.5-323.7,334.8-328.3,334.8z M-328.3,348.6c-3,0-5.4-2.4-5.4-5.4s2.4-5.4,5.4-5.4
		s5.4,2.4,5.4,5.4S-325.3,348.6-328.3,348.6z"/>
	<circle id="Oval-Copy" class="st1" cx="-320" cy="334.8" r="1.9"/>
</g>
</svg>
