<?xml version="1.0" encoding="utf-8"?>
<!-- Generator: Adobe Illustrator 19.0.0, SVG Export Plug-In . SVG Version: 6.00 Build 0)  -->
<svg version="1.1" id="Layer_1" xmlns="http://www.w3.org/2000/svg" xmlns:xlink="http://www.w3.org/1999/xlink" x="0px" y="0px"
	 viewBox="256 230.9 1107 381" style="enable-background:new 256 230.9 1107 381;" xml:space="preserve">
<style type="text/css">
	.st0{opacity:0.31;fill:#9A8D7A;enable-background:new    ;}
</style>
<path id="XMLID_753_" class="st0" d="M281.5,597.8c0-11.2,0-22.1,0-33.3c0-44.2,0.4-88.3,0.4-132.5c0-22.1,0-43.8,0-65.9
	c0-55,24.6-94.9,73.5-120.2c1.1-0.7,2.2-1.4,3.3-1.8c23.5-9.1,48.2-12.7,73.1-7.6c49.2,10.9,81.5,40.9,97.4,88.7
	c1.1,3.6,1.8,7.2,2.9,10.9c1.8,9.8,2.5,19.9,2.5,30.1c0,77.8,0,156.1,0,233.9c0,7.2-2.2,8.7-9.1,8.7c-77.8-0.4-155.3-0.4-233.2,0
	C284,608.6,280.7,606.5,281.5,597.8z M412.5,285.3L412.5,285.3c3.3,5.4,6.9,10.9,10.5,16.3c5.1,7.6,6.5,7.6,11.9,0
	c0.7-1.1,1.1-2.5,1.8-3.6c13.4-14.1,6.2-38.4-7.2-48.2c-16.3-11.9-37.7-8.7-49.6,8c-10.1,13.8-9.4,31.9,1.8,44.9
	c3.3,4,5.4,5.1,9.1-0.4c5.1-8,9.8-16.3,17-22.4c1.1,1.1,2.2,2.2,3.3,3.6C411.4,283.9,412.2,284.6,412.5,285.3z M501.6,467.1l0.7,0.4
	l0.7-0.4c9.1-4.7,16.3-11.6,22.1-19.9c1.4-2.2,4.3-6.5-2.2-5.8c-21,1.8-40.9,6.2-55.4,23.2c-10.1,11.2-14.5,25-16.7,40.9
	c15.9-14.5,32.6-25,49.2-36.2C501.2,468.9,501.6,468.2,501.6,467.1z M401.3,534.4c0,20.6,0,41.3-0.4,61.9c0,6.2,3.6,5.8,7.6,5.8
	c4.3,0,8,0,7.6-6.2c-0.4-21-0.4-42.4-0.4-63.4c0-26.4,0-52.5,0.4-78.9c0-6.2-3.6-5.4-7.2-5.1c-3.6,0-8.3-1.4-8,5.1
	C401.3,480.5,401.3,507.6,401.3,534.4z M524.4,458.8c-14.1,13-30.8,22.4-46.3,33.3c-9.4,6.5-18.8,13-25.3,22.4
	c-1.4,2.2-5.1,5.8,1.8,6.2c35.8,2.5,67.3-24.3,71.3-60.5c0.7-1.1,0.7-1.8,0.4-2.9C525.5,457.7,525.1,458,524.4,458.8z M425.6,425.1
	c8-7.2,16.7-13.8,25.7-19.9c11.9-8,23.5-15.9,35.1-24.3c5.4-4,10.1-8.7,13.4-14.5c1.8-2.9,1.1-5.1-2.9-4.7
	c-14.1,1.8-28.6,3.6-40.9,11.2C436.1,384.9,426.3,402.6,425.6,425.1c-0.4,0-0.7,0-1.1-0.4l0.4,0.4
	C425.2,425.4,425.2,425.1,425.6,425.1z M423.4,519.9c0,25.7-0.4,51.1-0.4,76.8c0,4.3,1.8,5.8,5.8,5.4c2.9,0,5.8-0.4,8.7,0
	c4.7,0.4,5.8-1.8,5.8-6.2c-0.4-26.8-0.4-53.9-0.4-80.7c2.2-14.1,2.5-28.6,9.8-41.3c5.8-7.6,9.8-16.7,18.1-22.4
	c15.2-10.9,32.2-15.9,50.3-17c6.9-0.4,7.6-2.9,7.6-8.3c-0.4-9.4-1.4-19.2,0-28.6c2.5-17-10.5-22.8-19.2-32.6
	c-2.2,3.3-1.4,6.2-1.8,8.7c-3.6,28.6-13.8,53.2-42.4,65.9c-11.6,5.4-24.3,7.2-36.9,8.3c-4,0.4-6.2,1.4-5.8,6.2
	c0.4,8.3,0.4,16.3,0.7,24.6C422.3,492.4,422.3,506.2,423.4,519.9z M393.7,537.7c0.7-26.4,0.7-52.9,0-79.3c1.4-6.5,0-10.9-8-10.5
	c-2.2,0-4.3-0.4-6.2-0.7c-38-4-62.3-26.4-68.4-64.4c-1.1-6.2-1.8-12.7-2.9-21c-5.1,5.4-8.7,9.8-12.7,13.4c-5.1,4.3-7.2,9.8-6.9,16.7
	c0.4,11.6,0.4,23.2,0,34.8c0,5.4,1.1,7.6,7.2,8c25,1.8,47.8,9.1,63.7,30.4c11.2,17.7,15.2,37.7,15.6,58.3c0,0.4,0,1.1,0,1.4
	c0,10.5,0,21,0,31.9c0,13,0,26.4-0.4,39.5c0,4.3,1.4,6.5,5.8,6.2c2.5,0,5.4,0,8,0c4,0.4,5.8-1.1,5.8-5.4
	C393.7,577.1,393.7,557.2,393.7,537.7z M470.5,315.4c19.6,18.5,38.7,37.3,57.9,55.4c0.4-14.5-0.4-30.1-6.2-44.5
	c-3.3-14.5-10.5-26.8-19.2-38.4c-2.9-4-6.5-6.2-11.9-5.8c-11.2,0.4-22.1,0-33.3,0.4c-2.9,0-7.2-1.8-8.7,2.9
	c-1.1,4.3-2.2,8.3,2.5,11.9C458.5,302.7,464.3,309.2,470.5,315.4z M367.6,548.9c0-6.5,0-12.7,0-19.2c0-1.1-0.4-1.8-1.1-1.8
	c-1.4,0-2.9-0.4-4.3-0.4c-1.1-0.4-2.2-0.7-2.9-0.7c-30.4-2.5-55-14.1-68.4-43.4c0-0.4-0.7-0.4-1.8-1.1c0,23.5,0,46.3,0,69.5
	c0,14.8,0,29.7,0,44.5c-1.1,4,0.4,5.8,4.7,5.8c22.8,0,46,0,68.8,0c4,0,5.8-1.1,5.8-5.4c-0.4-13-0.4-25.7-0.4-38.7c0-2.5,0-5.1,0-8
	C368,549.6,368,549.3,367.6,548.9z M528.4,483c-9.1,18.1-22.1,30.8-40.6,37.7c-10.1,4-20.6,6.5-31.5,6.5c-3.6,0-7.2,0.4-6.9,5.8
	c0.4,21,0,42.4,0,63.4c0,4,1.1,5.8,5.4,5.8c23.2,0,46,0,69.2,0c3.6,0,5.1-1.4,5.1-5.1C528.4,559,528.4,521,528.4,483z M499.4,354.8
	c-2.5-2.9-4-4.7-5.4-6.5c-13-13-26.1-26.4-39.1-39.5c-8.7-8.7-8.3-8-17.4-0.4c-5.4,4.3-5.1,7.6-1.8,13c6.5,11.2,8.7,23.2,2.5,35.5
	c-8.7,17-28.2,23.9-45.3,15.9c-18.1-8.7-25.3-28.2-15.6-47.4c4.7-9.1,5.4-15.2-2.5-22.1c-3.6-3.3-4.7-4.3-8.3-0.4
	c-15.2,15.6-30.4,30.8-45.6,46.3c-1.4,1.4-3.6,2.5-2.9,5.4c4.7,0.4,9.4,0.7,13.8,1.4c30.1,4.7,53.2,18.8,63,49.2
	c2.9,8.3,4.3,16.7,5.1,25.7c0.4,5.1-0.7,10.9,8.3,10.9c8.7,0,8.3-5.1,8.7-10.5c0-1.4,0-2.5,0.4-4c3.3-26.1,12.7-48.5,37.3-61.6
	C468.3,358.8,482.8,356.3,499.4,354.8z M288.7,371.5c13-12.7,25-24.3,36.9-36.2c13-13,26.1-26.4,39.1-39.5c3.6-3.6,2.5-6.9,1.8-10.9
	c-1.1-4.3-4.7-2.9-7.2-2.9c-11.9,0-23.9,0-35.8,0c-3.3,0-6.2,0.4-8.3,3.3C295.6,310.3,286.5,338.5,288.7,371.5z M435.3,344.7
	c0-7.6-2.9-15.6-6.9-22.8c-1.8-3.6-4-4-7.6-2.9c-6.9,2.5-13.8,2.5-21,1.1c-11.9-2.5-11.9-2.5-17,9.1c-0.7,1.4-1.4,2.9-1.8,4.3
	c-3.6,11.2-0.7,21,7.6,29c7.6,7.2,20.6,9.4,30.4,5.1C429.2,362.4,434.6,354.1,435.3,344.7z M392.3,425.4c0-2.9,0.4-4,0-5.4
	c-8.3-42.7-35.8-55.4-72.4-58.7c-4.3-0.4-3.3,2.5-2.2,4.7c2.5,4.7,6.2,8.7,10.1,11.9C347.7,395.4,372,406.6,392.3,425.4z
	 M366.2,505.1c-5.4-44.9-34.4-61.6-71.3-64.4c-5.4-0.4-5.1,2.5-2.9,5.8c4.7,7.2,11.2,12.7,18.1,17.7
	C328.2,477.9,348.4,488.4,366.2,505.1z M318,378.4c-0.7,1.1-0.7,1.4-0.7,1.4c5.4,42.4,34.4,59.7,72.1,61.6c4.3,0.4,4-2.5,2.2-5.1
	c-4-6.5-9.8-11.6-15.9-16.3C356.8,405.5,335.8,395,318,378.4z M359.7,520.3c1.8-0.4,5.1,1.8,6.2-1.1c1.4-2.5-1.1-4.3-2.5-6.2
	c-3.6-5.4-9.1-9.8-14.1-13.8c-17.4-13.4-36.9-23.5-53.6-38c-1.4-1.1-2.9-2.2-4.3-1.1c-1.8,1.1-0.4,2.5,0,4
	C299.2,499.3,320.2,516.7,359.7,520.3z M499.4,378c-19.9,18.5-44.2,29.7-64.1,47.1c-4,3.3-7.2,6.9-9.8,11.2c-2.2,4-1.1,5.1,2.9,5.1
	c9.1-0.4,17.7-2.2,26.4-4.7C480.6,428.7,499.8,404.1,499.4,378z M382.1,244c-21.7,4.7-40.2,14.1-55,30.1c11.9,1.1,23.2,1.1,34.4,1.1
	c2.5,0,4.7,0.4,5.4-3.3C368.7,261.1,374.2,252.4,382.1,244z M436.4,245.5c6.5,8,11.6,15.9,13,26.1c0.4,2.5,1.4,3.6,4,3.6
	c11.9,0,23.9,0,35.8,0C474.8,259.2,457.8,248.7,436.4,245.5z M408.6,314.3c4-0.7,10.1,0.7,12.3-2.9c1.8-3.3-3.3-6.9-5.4-10.5
	c0-0.4-0.4-0.4-0.4-0.7c-7.6-10.9-7.6-10.9-14.8-0.4c-2.2,3.3-7.2,7.2-5.8,10.5c2.2,4.3,8.3,2.9,13,4
	C407.5,314.6,407.8,314.3,408.6,314.3z"/>
<path id="XMLID_705_" class="st0" d="M550.1,597.8c0-11.2,0-22.1,0-33.3c0-44.2,0.4-88.3,0.4-132.5c0-22.1,0-43.8,0-65.9
	c0-55,24.6-94.9,73.5-120.2c1.1-0.7,2.2-1.4,3.3-1.8c23.5-9.1,48.2-12.7,73.1-7.6c49.2,10.9,81.5,40.9,97.4,88.7
	c1.1,3.6,1.8,7.2,2.9,10.9c1.8,9.8,2.5,19.9,2.5,30.1c0,77.8,0,156.1,0,233.9c0,7.2-2.2,8.7-9.1,8.7c-77.8-0.4-155.3-0.4-233.2,0
	C552.7,608.6,549.4,606.5,550.1,597.8z M681.2,285.3L681.2,285.3c3.3,5.4,6.9,10.9,10.5,16.3c5.1,7.6,6.5,7.6,11.9,0
	c0.7-1.1,1.1-2.5,1.8-3.6c13.4-14.1,6.2-38.4-7.2-48.2c-16.3-11.9-37.7-8.7-49.6,8c-10.1,13.8-9.4,31.9,1.8,44.9
	c3.3,4,5.4,5.1,9.1-0.4c5.1-8,9.8-16.3,17-22.4c1.1,1.1,2.2,2.2,3.3,3.6C680.1,283.9,680.8,284.6,681.2,285.3z M770.3,467.1l0.7,0.4
	l0.7-0.4c9.1-4.7,16.3-11.6,22.1-19.9c1.4-2.2,4.3-6.5-2.2-5.8c-21,1.8-40.9,6.2-55.4,23.2c-10.1,11.2-14.5,25-16.7,40.9
	c15.9-14.5,32.6-25,49.2-36.2C769.5,468.9,770.3,468.2,770.3,467.1z M670,534.4c0,20.6,0,41.3-0.4,61.9c0,6.2,3.6,5.8,7.6,5.8
	c4.3,0,8,0,7.6-6.2c-0.4-21-0.4-42.4-0.4-63.4c0-26.4,0-52.5,0.4-78.9c0-6.2-3.6-5.4-7.2-5.1c-3.6,0-8.3-1.4-8,5.1
	C670,480.5,670,507.6,670,534.4z M793.1,458.8c-14.1,13-30.8,22.4-46.3,33.3c-9.4,6.5-18.8,13-25.3,22.4c-1.4,2.2-5.1,5.8,1.8,6.2
	c35.8,2.5,67.3-24.3,71.3-60.5c0.7-1.1,0.7-1.8,0.4-2.9C794.2,457.7,793.8,458,793.1,458.8z M694.2,425.1c8-7.2,16.7-13.8,25.7-19.9
	c11.9-8,23.5-15.9,35.1-24.3c5.4-4,10.1-8.7,13.4-14.5c1.8-2.9,1.1-5.1-2.9-4.7c-14.1,1.8-28.6,3.6-40.9,11.2
	C704.7,384.9,695,402.6,694.2,425.1c-0.4,0-0.7,0-1.1-0.4l0.4,0.4C693.5,425.4,693.9,425.1,694.2,425.1z M691.7,519.9
	c0,25.7-0.4,51.1-0.4,76.8c0,4.3,1.8,5.8,5.8,5.4c2.9,0,5.8-0.4,8.7,0c4.7,0.4,5.8-1.8,5.8-6.2c-0.4-26.8-0.4-53.9-0.4-80.7
	c2.2-14.1,2.5-28.6,9.8-41.3c5.8-7.6,9.8-16.7,18.1-22.4c15.2-10.9,32.2-15.9,50.3-17c6.9-0.4,7.6-2.9,7.6-8.3
	c-0.4-9.4-1.4-19.2,0-28.6c2.5-17-10.5-22.8-19.2-32.6c-2.2,3.3-1.4,6.2-1.8,8.7c-3.6,28.6-13.8,53.2-42.4,65.9
	c-11.6,5.4-24.3,7.2-36.9,8.3c-4,0.4-6.2,1.4-5.8,6.2c0.4,8.3,0.4,16.3,0.7,24.6C691,492.4,691,506.2,691.7,519.9z M662,537.7
	c0.7-26.4,0.7-52.9,0-79.3c1.4-6.5,0-10.9-8-10.5c-2.2,0-4.3-0.4-6.2-0.7c-38-4-62.3-26.4-68.4-64.4c-1.1-6.2-1.8-12.7-2.9-21
	c-5.1,5.4-8.7,9.8-12.7,13.4c-5.1,4.3-7.2,9.8-6.9,16.7c0.4,11.6,0.4,23.2,0,34.8c0,5.4,1.1,7.6,7.2,8c25,1.8,47.8,9.1,63.7,30.4
	c11.2,17.7,15.2,37.7,15.6,58.3c0,0.4,0,1.1,0,1.4c0,10.5,0,21,0,31.9c0,13,0,26.4-0.4,39.5c0,4.3,1.4,6.5,5.8,6.2c2.5,0,5.4,0,8,0
	c4,0.4,5.8-1.1,5.8-5.4C662.4,577.1,662.4,557.2,662,537.7z M739.1,315.4c19.6,18.5,38.7,37.3,57.9,55.4c0.4-14.5-0.4-30.1-6.2-44.5
	c-3.3-14.5-10.5-26.8-19.2-38.4c-2.9-4-6.5-6.2-11.9-5.8c-11.2,0.4-22.1,0-33.3,0.4c-2.9,0-7.2-1.8-8.7,2.9
	c-1.1,4.3-2.2,8.3,2.5,11.9C727.2,302.7,733,309.2,739.1,315.4z M636.3,548.9c0-6.5,0-12.7,0-19.2c0-1.1-0.4-1.8-1.1-1.8
	c-1.4,0-2.9-0.4-4.3-0.4c-1.1-0.4-2.2-0.7-2.9-0.7c-30.4-2.5-55-14.1-68.4-43.4c0-0.4-0.7-0.4-1.8-1.1c0,23.5,0,46.3,0,69.5
	c0,14.8,0,29.7,0,44.5c-1.1,4,0.4,5.8,4.7,5.8c22.8,0,46,0,68.8,0c4,0,5.8-1.1,5.8-5.4c-0.4-13-0.4-25.7-0.4-38.7c0-2.5,0-5.1,0-8
	C636.7,549.6,636.7,549.3,636.3,548.9z M797.1,483c-9.1,18.1-22.1,30.8-40.6,37.7c-10.1,4-20.6,6.5-31.5,6.5c-3.6,0-7.2,0.4-6.9,5.8
	c0.4,21,0,42.4,0,63.4c0,4,1.1,5.8,5.4,5.8c23.2,0,46,0,69.2,0c3.6,0,5.1-1.4,5.1-5.1C797.1,559,797.1,521,797.1,483z M767.7,354.8
	c-2.5-2.9-4-4.7-5.4-6.5c-13-13-26.1-26.4-39.1-39.5c-8.7-8.7-8.3-8-17.4-0.4c-5.4,4.3-5.1,7.6-1.8,13c6.5,11.2,8.7,23.2,2.5,35.5
	c-8.7,17-28.2,23.9-45.3,15.9c-18.1-8.7-25.3-28.2-15.6-47.4c4.7-9.1,5.4-15.2-2.5-22.1c-3.6-3.3-4.7-4.3-8.3-0.4
	c-15.2,15.6-30.4,30.8-45.6,46.3c-1.4,1.4-3.6,2.5-2.9,5.4c4.7,0.4,9.4,0.7,13.8,1.4c30.1,4.7,53.2,18.8,63,49.2
	c2.9,8.3,4.3,16.7,5.1,25.7c0.4,5.1-0.7,10.9,8.3,10.9c8.7,0,8.3-5.1,8.7-10.5c0-1.4,0-2.5,0.4-4c3.3-26.1,12.7-48.5,37.3-61.6
	C736.6,358.8,751.4,356.3,767.7,354.8z M557.4,371.5c13-12.7,25-24.3,36.9-36.2c13-13,26.1-26.4,39.1-39.5c3.6-3.6,2.5-6.9,1.8-10.9
	c-1.1-4.3-4.7-2.9-7.2-2.9c-11.9,0-23.9,0-35.8,0c-3.3,0-6.2,0.4-8.3,3.3C564.2,310.3,555.2,338.5,557.4,371.5z M704,344.7
	c0-7.6-2.9-15.6-6.9-22.8c-1.8-3.6-4-4-7.6-2.9c-6.9,2.5-13.8,2.5-21,1.1c-11.9-2.5-11.9-2.5-17,9.1c-0.7,1.4-1.4,2.9-1.8,4.3
	c-3.6,11.2-0.7,21,7.6,29c7.6,7.2,20.6,9.4,30.4,5.1C697.5,362.4,703.3,354.1,704,344.7z M660.6,425.4c0-2.9,0.4-4,0-5.4
	c-8.3-42.7-35.8-55.4-72.4-58.7c-4.3-0.4-3.3,2.5-2.2,4.7c2.5,4.7,6.2,8.7,10.1,11.9C616.4,395.4,640.6,406.6,660.6,425.4z
	 M634.8,505.1c-5.4-44.9-34.4-61.6-71.3-64.4c-5.4-0.4-5.1,2.5-2.9,5.8c4.7,7.2,11.2,12.7,18.1,17.7
	C596.8,477.9,617.1,488.4,634.8,505.1z M586.7,378.4c-0.7,1.1-0.7,1.4-0.7,1.4c5.4,42.4,34.4,59.7,72.1,61.6c4.3,0.4,4-2.5,2.2-5.1
	c-4-6.5-9.8-11.6-15.9-16.3C625.4,405.5,604.1,395,586.7,378.4z M628.3,520.3c1.8-0.4,5.1,1.8,6.2-1.1c1.4-2.5-1.1-4.3-2.5-6.2
	c-3.6-5.4-9.1-9.8-14.1-13.8c-17.4-13.4-36.9-23.5-53.6-38c-1.4-1.1-2.9-2.2-4.3-1.1c-1.8,1.1-0.4,2.5,0,4
	C567.9,499.3,588.9,516.7,628.3,520.3z M768.1,378c-19.9,18.5-44.2,29.7-64.1,47.1c-4,3.3-7.2,6.9-9.8,11.2c-2.2,4-1.1,5.1,2.9,5.1
	c9.1-0.4,17.7-2.2,26.4-4.7C749.3,428.7,768.5,404.1,768.1,378z M650.8,244c-21.7,4.7-40.2,14.1-55,30.1c11.9,1.1,23.2,1.1,34.4,1.1
	c2.5,0,4.7,0.4,5.4-3.3C637,261.1,642.8,252.4,650.8,244z M705.1,245.5c6.5,8,11.6,15.9,13,26.1c0.4,2.5,1.4,3.6,4,3.6
	c11.9,0,23.9,0,35.8,0C743.5,259.2,726.1,248.7,705.1,245.5z M677.2,314.3c4-0.7,10.1,0.7,12.3-2.9c1.8-3.3-3.3-6.9-5.4-10.5
	c0-0.4-0.4-0.4-0.4-0.7c-7.6-10.9-7.6-10.9-14.8-0.4c-2.2,3.3-7.2,7.2-5.8,10.5c2.2,4.3,8.3,2.9,13,4
	C676.1,314.6,676.5,314.3,677.2,314.3z"/>
<path id="XMLID_657_" class="st0" d="M816.2,597.8c0-11.2,0-22.1,0-33.3c0-44.2,0.4-88.3,0.4-132.5c0-22.1,0-43.8,0-65.9
	c0-55,24.6-94.9,73.5-120.2c1.1-0.7,2.2-1.4,3.3-1.8c23.5-9.1,48.2-12.7,73.1-7.6c49.2,10.9,81.5,40.9,97.4,88.7
	c1.1,3.6,1.8,7.2,2.9,10.9c1.8,9.8,2.5,19.9,2.5,30.1c0,77.8,0,156.1,0,233.9c0,7.2-2.2,8.7-9.1,8.7c-77.8-0.4-155.3-0.4-233.2,0
	C818.4,608.6,815.2,606.5,816.2,597.8z M947,285.3L947,285.3c3.3,5.4,6.9,10.9,10.5,16.3c5.1,7.6,6.5,7.6,11.9,0
	c0.7-1.1,1.1-2.5,1.8-3.6c13.4-14.1,6.2-38.4-7.2-48.2c-16.3-11.9-37.7-8.7-49.6,8c-10.1,13.8-9.4,31.9,1.8,44.9
	c3.3,4,5.4,5.1,9.1-0.4c5.1-8,9.8-16.3,17-22.4c1.1,1.1,2.2,2.2,3.3,3.6C946.2,283.9,946.6,284.6,947,285.3z M1036.4,467.1l0.4,0.4
	l0.7-0.4c9.1-4.7,16.3-11.6,22.1-19.9c1.4-2.2,4.3-6.5-2.2-5.8c-21,1.8-40.9,6.2-55.4,23.2c-10.1,11.2-14.5,25-16.7,40.9
	c15.9-14.5,32.6-25,49.2-36.2C1035.7,468.9,1036.4,468.2,1036.4,467.1z M936.1,534.4c0,20.6,0,41.3-0.4,61.9c0,6.2,3.6,5.8,7.6,5.8
	c4.3,0,8,0,7.6-6.2c-0.4-21-0.4-42.4-0.4-63.4c0-26.4,0-52.5,0.4-78.9c0-6.2-3.6-5.4-7.2-5.1c-3.6,0-8.3-1.4-8,5.1
	C935.7,480.5,935.7,507.6,936.1,534.4z M1058.8,458.8c-14.1,13-30.8,22.4-46.3,33.3c-9.4,6.5-18.8,13-25.3,22.4
	c-1.4,2.2-5.1,5.8,1.8,6.2c35.8,2.5,67.3-24.3,71.3-60.5c0.7-1.1,0.7-1.8,0.4-2.9C1060.3,457.7,1059.6,458,1058.8,458.8z M960,425.1
	c8-7.2,16.7-13.8,25.7-19.9c11.9-8,23.5-15.9,35.1-24.3c5.4-4,10.1-8.7,13.4-14.5c1.8-2.9,1.1-5.1-2.9-4.7
	c-14.1,1.8-28.6,3.6-40.9,11.2C970.5,384.9,960.7,402.6,960,425.1c-0.4,0-0.7,0-1.1-0.4l0.4,0.4C959.6,425.4,960,425.1,960,425.1z
	 M957.8,519.9c0,25.7-0.4,51.1-0.4,76.8c0,4.3,1.8,5.8,5.8,5.4c2.9,0,5.8-0.4,8.7,0c4.7,0.4,5.8-1.8,5.8-6.2
	c-0.4-26.8-0.4-53.9-0.4-80.7c2.2-14.1,2.5-28.6,9.8-41.3c5.8-7.6,9.8-16.7,18.1-22.4c15.2-10.9,32.2-15.9,50.3-17
	c6.9-0.4,7.6-2.9,7.6-8.3c-0.4-9.4-1.4-19.2,0-28.6c2.5-17-10.5-22.8-19.2-32.6c-2.2,3.3-1.4,6.2-1.8,8.7
	c-3.6,28.6-13.8,53.2-42.4,65.9c-11.6,5.4-24.3,7.2-36.9,8.3c-4,0.4-6.2,1.4-5.8,6.2c0.4,8.3,0.4,16.3,0.7,24.6
	C957.1,492.4,956.7,506.2,957.8,519.9z M928.1,537.7c0.7-26.4,0.7-52.9,0-79.3c1.4-6.5,0-10.9-8-10.5c-2.2,0-4.3-0.4-6.2-0.7
	c-38-4-62.3-26.4-68.4-64.4c-1.1-6.2-1.8-12.7-2.9-21c-5.1,5.4-8.7,9.8-12.7,13.4c-5.1,4.3-7.2,9.8-6.9,16.7
	c0.4,11.6,0.4,23.2,0,34.8c0,5.4,1.1,7.6,7.2,8c25,1.8,47.8,9.1,63.7,30.4c11.2,17.7,15.2,37.7,15.6,58.3c0,0.4,0,1.1,0,1.4
	c0,10.5,0,21,0,31.9c0,13,0,26.4-0.4,39.5c0,4.3,1.4,6.5,5.8,6.2c2.5,0,5.4,0,8,0c4,0.4,5.8-1.1,5.8-5.4
	C928.1,577.1,928.1,557.2,928.1,537.7z M1004.9,315.4c19.6,18.5,38.7,37.3,57.9,55.4c0.4-14.5-0.4-30.1-6.2-44.5
	c-3.3-14.5-10.5-26.8-19.2-38.4c-2.9-4-6.5-6.2-11.9-5.8c-11.2,0.4-22.1,0-33.3,0.4c-2.9,0-7.2-1.8-8.7,2.9
	c-1.1,4.3-2.2,8.3,2.5,11.9C992.9,302.7,998.7,309.2,1004.9,315.4z M902.1,548.9c0-6.5,0-12.7,0-19.2c0-1.1-0.4-1.8-1.1-1.8
	c-1.4,0-2.9-0.4-4.3-0.4c-1.1-0.4-2.2-0.7-2.9-0.7c-30.4-2.5-55-14.1-68.4-43.4c0-0.4-0.7-0.4-1.8-1.1c0,23.5,0,46.3,0,69.5
	c0,14.8,0,29.7,0,44.5c-1.1,4,0.4,5.8,4.7,5.8c22.8,0,46,0,68.8,0c4,0,5.8-1.1,5.8-5.4c-0.4-13-0.4-25.7-0.4-38.7c0-2.5,0-5.1,0-8
	C902.4,549.6,902.4,549.3,902.1,548.9z M1063.2,483c-9.1,18.1-22.1,30.8-40.6,37.7c-10.1,4-20.6,6.5-31.5,6.5
	c-3.6,0-7.2,0.4-6.9,5.8c0.4,21,0,42.4,0,63.4c0,4,1.1,5.8,5.4,5.8c23.2,0,46,0,69.2,0c3.6,0,5.1-1.4,5.1-5.1
	C1063.2,559,1063.2,521,1063.2,483z M1033.9,354.8c-2.5-2.9-4-4.7-5.4-6.5c-13-13-26.1-26.4-39.1-39.5c-8.7-8.7-8.3-8-17.4-0.4
	c-5.4,4.3-5.1,7.6-1.8,13c6.5,11.2,8.7,23.2,2.5,35.5c-8.7,17-28.2,23.9-45.3,15.9c-18.1-8.7-25.3-28.2-15.6-47.4
	c4.7-9.1,5.4-15.2-2.5-22.1c-3.6-3.3-4.7-4.3-8.3-0.4c-15.2,15.6-30.4,30.8-45.6,46.3c-1.4,1.4-3.6,2.5-2.9,5.4
	c4.7,0.4,9.4,0.7,13.8,1.4c30.1,4.7,53.2,18.8,63,49.2c2.9,8.3,4.3,16.7,5.1,25.7c0.4,5.1-0.7,10.9,8.3,10.9c8.7,0,8.3-5.1,8.7-10.5
	c0-1.4,0-2.5,0.4-4c3.3-26.1,12.7-48.5,37.3-61.6C1002.7,358.8,1017.2,356.3,1033.9,354.8z M823.5,371.5c13-12.7,25-24.3,36.9-36.2
	c13-13,26.1-26.4,39.1-39.5c3.6-3.6,2.5-6.9,1.8-10.9c-1.1-4.3-4.7-2.9-7.2-2.9c-11.9,0-23.9,0-35.8,0c-3.3,0-6.2,0.4-8.3,3.3
	C830,310.3,821.3,338.5,823.5,371.5z M969.8,344.7c0-7.6-2.9-15.6-6.9-22.8c-1.8-3.6-4-4-7.6-2.9c-6.9,2.5-13.8,2.5-21,1.1
	c-11.9-2.5-11.9-2.5-17,9.1c-0.7,1.4-1.4,2.9-1.8,4.3c-3.6,11.2-0.7,21,7.6,29c7.6,7.2,20.6,9.4,30.4,5.1
	C963.6,362.4,969,354.1,969.8,344.7z M926.7,425.4c0-2.9,0.4-4,0-5.4c-8.3-42.7-35.8-55.4-72.4-58.7c-4.3-0.4-3.3,2.5-2.2,4.7
	c2.5,4.7,6.2,8.7,10.1,11.9C882.1,395.4,906.4,406.6,926.7,425.4z M900.6,505.1c-5.4-44.9-34.4-61.6-71.3-64.4
	c-5.4-0.4-5.1,2.5-2.9,5.8c4.7,7.2,11.2,12.7,18.1,17.7C862.6,477.9,882.9,488.4,900.6,505.1z M852.5,378.4
	c-0.7,1.1-0.7,1.4-0.7,1.4c5.4,42.4,34.4,59.7,72.1,61.6c4.3,0.4,4-2.5,2.2-5.1c-4-6.5-9.8-11.6-15.9-16.3
	C891.6,405.5,870.2,395,852.5,378.4z M894.5,520.3c1.8-0.4,5.1,1.8,6.2-1.1c1.4-2.5-1.1-4.3-2.5-6.2c-3.6-5.4-9.1-9.8-14.1-13.8
	c-17.4-13.4-36.9-23.5-53.6-38c-1.4-1.1-2.9-2.2-4.3-1.1c-1.8,1.1-0.4,2.5,0,4C834,499.3,855,516.7,894.5,520.3z M1034.2,378
	c-19.9,18.5-44.2,29.7-64.1,47.1c-4,3.3-7.2,6.9-9.8,11.2c-2.2,4-1.1,5.1,2.9,5.1c9.1-0.4,17.7-2.2,26.4-4.7
	C1015,428.7,1034.2,404.1,1034.2,378z M916.5,244c-21.7,4.7-40.2,14.1-55,30.1c11.9,1.1,23.2,1.1,34.4,1.1c2.5,0,4.7,0.4,5.4-3.3
	C903.1,261.1,908.9,252.4,916.5,244z M970.9,245.5c6.5,8,11.6,15.9,13,26.1c0.4,2.5,1.4,3.6,4,3.6c11.9,0,23.9,0,35.8,0
	C1009.2,259.2,992.2,248.7,970.9,245.5z M943,314.3c4-0.7,10.1,0.7,12.3-2.9c1.8-3.3-3.3-6.9-5.4-10.5c0-0.4-0.4-0.4-0.4-0.7
	c-7.6-10.9-7.6-10.9-14.8-0.4c-2.2,3.3-7.2,7.2-5.8,10.5c2.2,4.3,8.3,2.9,13,4C941.9,314.6,942.2,314.3,943,314.3z"/>
<path id="XMLID_609_" class="st0" d="M1084.5,597.8c0-11.2,0-22.1,0-33.3c0-44.2,0.4-88.3,0.4-132.5c0-22.1,0-43.8,0-65.9
	c0-55,24.6-94.9,73.5-120.2c1.1-0.7,2.2-1.4,3.3-1.8c23.5-9.1,48.2-12.7,73.1-7.6c49.2,10.9,81.5,40.9,97.4,88.7
	c1.1,3.6,1.8,7.2,2.9,10.9c1.8,9.8,2.5,19.9,2.5,30.1c0,77.8,0,156.1,0,233.9c0,7.2-2.2,8.7-9.1,8.7c-77.8-0.4-155.3-0.4-233.2,0
	C1087.1,608.6,1083.8,606.5,1084.5,597.8z M1215.6,285.3L1215.6,285.3c3.3,5.4,6.9,10.9,10.5,16.3c5.1,7.6,6.5,7.6,11.9,0
	c0.7-1.1,1.1-2.5,1.8-3.6c13.4-14.1,6.2-38.4-7.2-48.2c-16.3-11.9-37.7-8.7-49.6,8c-10.1,13.8-9.4,31.9,1.8,44.9
	c3.3,4,5.4,5.1,9.1-0.4c5.1-8,9.8-16.3,17-22.4c1.1,1.1,2.2,2.2,3.3,3.6C1214.5,283.9,1215.3,284.6,1215.6,285.3z M1304.7,467.1
	l0.7,0.4l0.7-0.4c9.1-4.7,16.3-11.6,22.1-19.9c1.4-2.2,4.3-6.5-2.2-5.8c-21,1.8-40.9,6.2-55.4,23.2c-10.1,11.2-14.5,25-16.7,40.9
	c15.9-14.5,32.6-25,49.2-36.2C1304.3,468.9,1304.7,468.2,1304.7,467.1z M1204.4,534.4c0,20.6,0,41.3-0.4,61.9c0,6.2,3.6,5.8,7.6,5.8
	c4.3,0,8,0,7.6-6.2c-0.4-21-0.4-42.4-0.4-63.4c0-26.4,0-52.5,0.4-78.9c0-6.2-3.6-5.4-7.2-5.1c-3.6,0-8.3-1.4-8,5.1
	C1204.4,480.5,1204.4,507.6,1204.4,534.4z M1327.5,458.8c-14.1,13-30.8,22.4-46.3,33.3c-9.4,6.5-18.8,13-25.3,22.4
	c-1.4,2.2-5.1,5.8,1.8,6.2c35.8,2.5,67.3-24.3,71.3-60.5c0.7-1.1,0.7-1.8,0.4-2.9C1328.9,457.7,1328.2,458,1327.5,458.8z
	 M1228.7,425.1c8-7.2,16.7-13.8,25.7-19.9c11.9-8,23.5-15.9,35.1-24.3c5.4-4,10.1-8.7,13.4-14.5c1.8-2.9,1.1-5.1-2.9-4.7
	c-14.1,1.8-28.6,3.6-40.9,11.2C1239.2,384.9,1229.4,402.6,1228.7,425.1c-0.4,0-0.7,0-1.1-0.4l0.4,0.4
	C1228.3,425.4,1228.3,425.1,1228.7,425.1z M1226.5,519.9c0,25.7-0.4,51.1-0.4,76.8c0,4.3,1.8,5.8,5.8,5.4c2.9,0,5.8-0.4,8.7,0
	c4.7,0.4,5.8-1.8,5.8-6.2c-0.4-26.8-0.4-53.9-0.4-80.7c2.2-14.1,2.5-28.6,9.8-41.3c5.8-7.6,9.8-16.7,18.1-22.4
	c15.2-10.9,32.2-15.9,50.3-17c6.9-0.4,7.6-2.9,7.6-8.3c-0.4-9.4-1.4-19.2,0-28.6c2.5-17-10.5-22.8-19.2-32.6
	c-2.2,3.3-1.4,6.2-1.8,8.7c-3.6,28.6-13.8,53.2-42.4,65.9c-11.6,5.4-24.3,7.2-36.9,8.3c-4,0.4-6.2,1.4-5.8,6.2
	c0.4,8.3,0.4,16.3,0.7,24.6C1225.4,492.4,1225.4,506.2,1226.5,519.9z M1196.8,537.7c0.7-26.4,0.7-52.9,0-79.3c1.4-6.5,0-10.9-8-10.5
	c-2.2,0-4.3-0.4-6.2-0.7c-38-4-62.3-26.4-68.4-64.4c-1.1-6.2-1.8-12.7-2.9-21c-5.1,5.4-8.7,9.8-12.7,13.4c-5.1,4.3-7.2,9.8-6.9,16.7
	c0.4,11.6,0.4,23.2,0,34.8c0,5.4,1.1,7.6,7.2,8c25,1.8,47.8,9.1,63.7,30.4c11.2,17.7,15.2,37.7,15.6,58.3c0,0.4,0,1.1,0,1.4
	c0,10.5,0,21,0,31.9c0,13,0,26.4-0.4,39.5c0,4.3,1.4,6.5,5.8,6.2c2.5,0,5.4,0,8,0c4,0.4,5.8-1.1,5.8-5.4
	C1196.8,577.1,1196.8,557.2,1196.8,537.7z M1273.5,315.4c19.6,18.5,38.7,37.3,57.9,55.4c0.4-14.5-0.4-30.1-6.2-44.5
	c-3.3-14.5-10.5-26.8-19.2-38.4c-2.9-4-6.5-6.2-11.9-5.8c-11.2,0.4-22.1,0-33.3,0.4c-2.9,0-7.2-1.8-8.7,2.9
	c-1.1,4.3-2.2,8.3,2.5,11.9C1261.6,302.7,1267.4,309.2,1273.5,315.4z M1170.7,548.9c0-6.5,0-12.7,0-19.2c0-1.1-0.4-1.8-1.1-1.8
	c-1.4,0-2.9-0.4-4.3-0.4c-1.1-0.4-2.2-0.7-2.9-0.7c-30.4-2.5-55-14.1-68.4-43.4c0-0.4-0.7-0.4-1.8-1.1c0,23.5,0,46.3,0,69.5
	c0,14.8,0,29.7,0,44.5c-1.1,4,0.4,5.8,4.7,5.8c22.8,0,46,0,68.8,0c4,0,5.8-1.1,5.8-5.4c-0.4-13-0.4-25.7-0.4-38.7c0-2.5,0-5.1,0-8
	C1171.1,549.6,1171.1,549.3,1170.7,548.9z M1331.5,483c-9.1,18.1-22.1,30.8-40.6,37.7c-10.1,4-20.6,6.5-31.5,6.5
	c-3.6,0-7.2,0.4-6.9,5.8c0.4,21,0,42.4,0,63.4c0,4,1.1,5.8,5.4,5.8c23.2,0,46,0,69.2,0c3.6,0,5.1-1.4,5.1-5.1
	C1331.5,559,1331.5,521,1331.5,483z M1302.5,354.8c-2.5-2.9-4-4.7-5.4-6.5c-13-13-26.1-26.4-39.1-39.5c-8.7-8.7-8.3-8-17.4-0.4
	c-5.4,4.3-5.1,7.6-1.8,13c6.5,11.2,8.7,23.2,2.5,35.5c-8.7,17-28.2,23.9-45.3,15.9c-18.1-8.7-25.3-28.2-15.6-47.4
	c4.7-9.1,5.4-15.2-2.5-22.1c-3.6-3.3-4.7-4.3-8.3-0.4c-15.2,15.6-30.4,30.8-45.6,46.3c-1.4,1.4-3.6,2.5-2.9,5.4
	c4.7,0.4,9.4,0.7,13.8,1.4c30.1,4.7,53.2,18.8,63,49.2c2.9,8.3,4.3,16.7,5.1,25.7c0.4,5.1-0.7,10.9,8.3,10.9c8.7,0,8.3-5.1,8.7-10.5
	c0-1.4,0-2.5,0.4-4c3.3-26.1,12.7-48.5,37.3-61.6C1271.4,358.8,1285.9,356.3,1302.5,354.8z M1091.8,371.5c13-12.7,25-24.3,36.9-36.2
	c13-13,26.1-26.4,39.1-39.5c3.6-3.6,2.5-6.9,1.8-10.9c-1.1-4.3-4.7-2.9-7.2-2.9c-11.9,0-23.9,0-35.8,0c-3.3,0-6.2,0.4-8.3,3.3
	C1098.7,310.3,1089.6,338.5,1091.8,371.5z M1238.4,344.7c0-7.6-2.9-15.6-6.9-22.8c-1.8-3.6-4-4-7.6-2.9c-6.9,2.5-13.8,2.5-21,1.1
	c-11.9-2.5-11.9-2.5-17,9.1c-0.7,1.4-1.4,2.9-1.8,4.3c-3.6,11.2-0.7,21,7.6,29c7.6,7.2,20.6,9.4,30.4,5.1
	C1232.3,362.4,1237.7,354.1,1238.4,344.7z M1195.3,425.4c0-2.9,0.4-4,0-5.4c-8.3-42.7-35.8-55.4-72.4-58.7c-4.3-0.4-3.3,2.5-2.2,4.7
	c2.5,4.7,6.2,8.7,10.1,11.9C1150.8,395.4,1175.1,406.6,1195.3,425.4z M1169.3,505.1c-5.4-44.9-34.4-61.6-71.3-64.4
	c-5.4-0.4-5.1,2.5-2.9,5.8c4.7,7.2,11.2,12.7,18.1,17.7C1131.3,477.9,1151.5,488.4,1169.3,505.1z M1121.1,378.4
	c-0.7,1.1-0.7,1.4-0.7,1.4c5.4,42.4,34.4,59.7,72.1,61.6c4.3,0.4,4-2.5,2.2-5.1c-4-6.5-9.8-11.6-15.9-16.3
	C1159.9,405.5,1138.9,395,1121.1,378.4z M1162.8,520.3c1.8-0.4,5.1,1.8,6.2-1.1c1.4-2.5-1.1-4.3-2.5-6.2c-3.6-5.4-9.1-9.8-14.1-13.8
	c-17.4-13.4-36.9-23.5-53.6-38c-1.4-1.1-2.9-2.2-4.3-1.1c-1.8,1.1-0.4,2.5,0,4C1102.3,499.3,1123.6,516.7,1162.8,520.3z M1302.5,378
	c-19.9,18.5-44.2,29.7-64.1,47.1c-4,3.3-7.2,6.9-9.8,11.2c-2.2,4-1.1,5.1,2.9,5.1c9.1-0.4,17.7-2.2,26.4-4.7
	C1283.7,428.7,1302.9,404.1,1302.5,378z M1185.2,244c-21.7,4.7-40.2,14.1-55,30.1c11.9,1.1,23.2,1.1,34.4,1.1c2.5,0,4.7,0.4,5.4-3.3
	C1171.8,261.1,1177.2,252.4,1185.2,244z M1239.5,245.5c6.5,8,11.6,15.9,13,26.1c0.4,2.5,1.4,3.6,4,3.6c11.9,0,23.9,0,35.8,0
	C1277.9,259.2,1260.9,248.7,1239.5,245.5z M1211.6,314.3c4-0.7,10.1,0.7,12.3-2.9c1.8-3.3-3.3-6.9-5.4-10.5c0-0.4-0.4-0.4-0.4-0.7
	c-7.6-10.9-7.6-10.9-14.8-0.4c-2.2,3.3-7.2,7.2-5.8,10.5c2.2,4.3,8.3,2.9,13,4C1210.5,314.6,1210.9,314.3,1211.6,314.3z"/>
</svg>
