<?xml version="1.0" encoding="utf-8"?>
<!-- Generator: Adobe Illustrator 19.0.0, SVG Export Plug-In . SVG Version: 6.00 Build 0)  -->
<svg version="1.1" id="Layer_1" xmlns="http://www.w3.org/2000/svg" xmlns:xlink="http://www.w3.org/1999/xlink" x="0px" y="0px"
	 viewBox="0 0 732 1196" style="enable-background:new 0 0 732 1196;" xml:space="preserve">
<style type="text/css">
	.st0{fill:#9A8D7A;}
	.st1{font-family:'Helvetica';}
	.st2{font-size:44.3782px;}
	.st3{letter-spacing:8;}
</style>
<g id="XMLID_11668_">
	<g id="XMLID_523_">
		<g id="XMLID_558_">
			<g id="XMLID_559_">
				<path id="XMLID_575_" class="st0" d="M409.2,993c-0.5,2.7-1.2,4.4-1.2,6.1c0.4,14.6,0.9,29.2,1.6,43.8
					c0.4,8.1,1.2,16.2,1.9,24.4c0.6,6.5,2.5,9,8.5,10.7c4,1.2,8.1,2,12.2,3c1.7,0.4,3.9,0.3,3.6,3c-0.3,2.6-2.3,2.9-4.3,2.8
					c-4.8-0.1-9.5-0.2-14.3-0.4c-9.3-0.3-18.6-0.5-27.8-0.8c-1,0-1.9-0.6-2.9-1c0.6-1.1,1.3-2.2,1.9-3.3c0-0.1,0.2-0.1,0.3-0.2
					c8.3-1.4,9-7.9,9.2-14.4c0.4-11.5,0.6-23.1,0.8-34.6c0.2-15.3,0.3-30.6,0.6-45.8c0.1-4.5-1.5-8.3-5.1-10.9
					c-4.4-3.2-9.1-6.2-13.5-9.4c-0.8-0.6-1.5-1.9-1.5-2.9c0-0.6,1.6-1.6,2.4-1.6c7-0.1,14-0.2,21.1,0.1c1.6,0.1,3.5,1.5,4.6,2.9
					c12.8,15.1,25.5,30.3,38.3,45.4c11,13,22,25.9,33.1,38.7c1.2,1.4,3.2,2.1,4.8,3.1c0.5-1.9,1.2-3.7,1.3-5.6
					c0.2-4,0.1-7.9,0.1-11.9c-0.4-16.5-0.8-33-1.3-49.5c-0.3-9-4-13.4-12.7-15.7c-3.9-1-7.9-1.8-11.8-2.9c-1.6-0.4-3.8-0.7-3.3-3.4
					c0.4-2.4,2.2-2.6,4.1-2.5c14.6,0.5,29.2,1,43.8,1.6c0.8,0,2.2,0.7,2.3,1.3c0.2,0.8-0.5,1.9-1.1,2.6c-0.6,0.6-1.5,1-2.3,1.3
					c-5.1,1.9-7.2,5.8-7.2,11.1c0,26.5-0.2,53,0.1,79.5c0.1,7.4,1.2,14.9,2,22.3c0.3,2.6-0.4,4.1-2.8,5.4c-8.3,4.3-7.8,4.1-13.3-3.5
					c-11.3-15.8-22.9-31.5-35-46.7c-10.1-12.7-21-24.6-31.7-36.8C413.2,996.3,411.5,995.1,409.2,993z"/>
				<path id="XMLID_572_" class="st0" d="M42.1,961.6c9.8-0.5,19.6-1.5,29.4-1.6c19.6-0.2,35.1,15.7,35.4,35.4
					c0.2,12.3-4.4,21.8-15,28c-5.7,3.3-11.7,6.7-17.9,8.4c-5.4,1.5-11.4,0.8-17.2,0.9c-8.4,0.1-8.5,0-8.4,8.5
					c0.1,9.3,0.4,18.5,0.7,27.8c0.2,5,2.2,7.6,7,9.1c4,1.2,8,2.2,12.1,3.3c1.4,0.4,3.3,0.7,2.4,2.7c-0.5,1.1-2.1,2.6-3.2,2.5
					c-7.6-0.2-15.1-0.8-22.7-1.1c-6-0.2-11.9,0-17.9,0c-1.1,0-2.1-0.7-3.1-1.1c0.6-1.1,0.9-2.9,1.8-3.3c6.4-2.8,7.5-8,7.5-14.2
					c0.3-29.1,0.7-58.2,1.1-87.2c0.1-6-1.6-10.8-8-13c-1-0.3-1.5-2-2.2-3.1c1.2-0.8,2.3-2.1,3.5-2.2c4.9-0.3,9.7-0.1,14.6-0.1
					C42.1,961.4,42.1,961.5,42.1,961.6z M49,997.4c-0.2,0-0.5,0-0.7,0c0,6.4,0,12.9,0,19.3c0,3.9,1,5.4,4.8,5.6
					c7.8,0.3,15.6,0.7,23.3,0.2c8.8-0.7,14.7-5.8,15.8-13.7c0.7-5.3,0.9-10.9-0.2-16.1c-4.1-18.6-24.4-25.6-39.1-23.8
					c-2.8,0.3-3.9,2.5-3.9,5.2C49,981.8,49,989.6,49,997.4z"/>
				<path id="XMLID_571_" class="st0" d="M181.3,1079.2c-4.8,2-9.3,4.3-14.1,5.8c-10.3,3.4-20.4,2.5-29.8-2.8
					c-9.3-5.2-12.9-13.9-13.1-24.1c-0.2-8.3,0-16.5-0.1-24.8c-0.1-7.2-0.4-14.5-0.3-21.7c0.1-4-1.6-6.3-5.1-7.8
					c-1.3-0.6-2.1-2.1-3.1-3.3c1.4-0.8,2.7-2.1,4.3-2.5c4.4-1,8.9-1.6,13.3-2.5c4.1-0.9,5-0.2,5,4.1c0,17.1,0,34.2,0,51.3
					c0,3.5,0.1,7.1,0.8,10.5c1.8,8.6,8.2,13.9,17.2,14.7c8.8,0.8,16.5-2,23.3-7.4c1.1-0.9,2-2.9,2-4.4c0.1-17.9,0.1-35.7,0.1-53.6
					c0-3.2-1.5-5.1-4.4-6.1c-2.1-0.7-4.4-1.1-6.4-2c-1.2-0.6-1.9-2-2.9-3c1.2-1,2.3-2.5,3.6-2.8c3.8-0.8,7.6-1,11.4-1.4
					c3.2-0.4,6.5-0.9,9.7-1.4c2.9-0.4,3.9,1.2,3.8,3.8c-0.1,3.4-0.3,6.8-0.3,10.2c-0.1,18.3-0.2,36.7-0.3,55c0,2.6,0.1,5.2,0.3,7.8
					c0.3,4.2,1.7,5.4,5.8,6.3c1.3,0.3,2.4,1.7,3.6,2.5c-1.1,1.2-2.1,3-3.5,3.4c-4,1.2-8.1,2.2-12.2,2.6c-4.9,0.5-5.7-0.3-7.7-4.8
					C182.1,1080.2,181.6,1079.7,181.3,1079.2z"/>
				<path id="XMLID_568_" class="st0" d="M306.1,1079c-1.4,0.9-2.4,1.6-3.4,2.2c-8.1,5.4-16.8,8.3-26.6,6c-6.9-1.6-11.9-5.3-14-12.3
					c-2.2-7.4-0.2-13.7,5-19c6.5-6.7,14.8-10.7,22.8-15c4.4-2.3,8.8-4.6,13.3-6.7c2.7-1.3,3.9-3.1,3.7-6.1
					c-0.3-3.9-0.3-7.9-0.8-11.8c-0.8-7.3-4.5-11.1-11.8-12.3c-8.5-1.4-16.3,1.3-24.1,4.2c-1.8,0.7-3.4,1.7-5.2,2.3
					c-0.8,0.3-2.2,0.4-2.8-0.1c-0.5-0.4-0.4-1.9-0.1-2.7c3-6.8,7.5-11.4,15.6-12.8c9.1-1.6,17.9-3.2,27.1-1.2
					c9.9,2.2,16.2,8.7,16.1,18.8c-0.1,14.6-0.8,29.2-1,43.7c-0.1,5.6,0.5,11.3,1.3,16.9c0.6,4.1,4.5,4.3,7.6,4.9
					c1.7,0.4,3.8-0.2,3.8,2.6c0,2.7-1.6,3.3-3.9,3.6c-5.8,0.7-11.6,1.6-17.4,2.4c-2.6,0.4-4.1-0.6-4-3.5
					C307.3,1082.1,306.6,1080.8,306.1,1079z M306.9,1042.3c-1.5,0.4-2.2,0.4-2.7,0.7c-7.2,4.1-14.6,8.1-21.6,12.6
					c-2.4,1.6-4.4,4.3-5.7,6.9c-2.5,4.8-0.2,10.5,4.7,12.9c11.3,5.4,24.6-2.4,25.2-14.8c0-0.6,0.1-1.1,0.1-1.7
					C306.9,1053.6,306.9,1048.2,306.9,1042.3z"/>
				<path id="XMLID_565_" class="st0" d="M562,1079.2c-3.8,2.1-6.9,4.1-10.2,5.7c-7.2,3.5-14.8,4.2-22.4,1.7
					c-12.2-4.1-16.3-18.3-8.4-28.5c4.5-5.9,10.8-9.6,17.1-13.1c6.8-3.7,13.8-7.3,20.8-10.7c2.8-1.4,4.1-3.3,3.9-6.4
					c-0.3-3.9-0.3-7.9-0.9-11.8c-1.1-7.6-4.7-11.1-12.3-12.2c-8.3-1.2-16.1,1.4-23.7,4.4c-1.8,0.7-3.4,1.7-5.2,2.3
					c-0.8,0.3-2,0.1-2.7-0.3c-0.4-0.3-0.4-1.7,0-2.4c3-6.6,7.1-11.9,15.2-12.7c6.8-0.6,13.6-2.2,20.4-2.4c5.5-0.2,11,1.4,15.7,4.6
					c4.9,3.3,7.5,8,7.5,13.7c0,14.6-0.6,29.2-0.7,43.8c0,5.9,0.3,11.7,0.9,17.6c0.3,3.6,2.7,5.2,7.7,5.8c1.7,0.2,3.9-0.4,4,2.4
					c0,2.7-1.6,3.5-4.1,3.8c-5.5,0.6-10.9,1.6-16.4,2.4c-3.1,0.4-5.1-0.4-5-4C563,1081.8,562.5,1080.7,562,1079.2z M561.8,1042
					c-5,2.7-10,5-14.7,7.9c-4.5,2.8-9.2,5.7-12.6,9.5c-5.7,6.2-3.1,14.3,5,16.8c2.2,0.7,4.7,0.8,7,0.7c7.3-0.3,14.7-5.4,15.4-11.5
					c0.8-6.9,0.6-14,0.8-21C562.7,1043.8,562.3,1043.2,561.8,1042z"/>
				<path id="XMLID_562_" class="st0" d="M685.7,1079.2c-2.8,1.7-5.1,3.2-7.6,4.6c-8.3,4.5-17.1,6.1-26.1,2.4
					c-11.6-4.8-15.2-18.7-6.8-28.1c4.6-5.2,10.8-9.1,16.8-12.9c6.2-3.9,12.9-7.1,19.6-10.1c4.1-1.9,5.6-4.5,5.1-8.8
					c-0.4-3.4-0.4-6.8-0.9-10.1c-1.1-7.4-4.7-11-12.1-12.1c-8.5-1.3-16.3,1.3-24,4.4c-1.8,0.7-3.4,1.7-5.2,2.3
					c-0.8,0.3-2,0.1-2.7-0.4c-0.4-0.3-0.3-1.7,0-2.4c3-6.9,7.4-11.5,15.5-12.8c7.8-1.3,15.5-3.2,23.5-1.9c2,0.3,4,0.7,5.9,1.4
					c10.9,3.8,14.6,10.4,14.1,23.6c-0.5,15.4-0.6,30.8-0.9,46.2c0,1.8,0.3,3.6,0.4,5.4c0.3,6.1,2,7.8,8.2,8.7
					c1.4,0.2,3.5,1.3,3.7,2.2c0.4,2.2-1,3.6-3.6,3.9c-5.7,0.7-11.4,1.6-17.1,2.4c-3,0.4-4.8-0.6-4.8-3.9
					C686.8,1081.8,686.2,1080.6,685.7,1079.2z M686,1042.3c-1.2,0.4-2,0.6-2.6,0.9c-6.2,3.4-12.5,6.8-18.5,10.5
					c-2.5,1.6-5,3.6-6.8,6c-5.1,6.5-2.7,14.1,5.2,16.6c6,1.9,11.5,0.4,16.8-2.7c3.7-2.2,5.8-5.4,6.1-9.6c0.4-6.1,0.4-12.2,0.5-18.3
					C686.7,1044.6,686.3,1043.6,686,1042.3z"/>
				<path id="XMLID_561_" class="st0" d="M240,942.7c-0.2,26.7-0.6,53.4-0.7,80.1c0,14.7,0.4,29.4,0.7,44.1c0.2,9,1.6,10.7,9.9,14
					c1.2,0.5,2.8,2,2.9,3.2c0.2,2.3-1.8,2.8-3.8,2.6c-4-0.3-8.1-1-12.1-1.1c-6.8-0.2-13.5,0-20.3-0.2c-1.5,0-3.8-0.5-4.2-1.5
					c-1-2.3,0.8-3.7,2.9-4.5c0.2-0.1,0.4-0.2,0.6-0.3c6.6-1.9,8.6-6.7,8.6-13.2c0.1-35.1,0.4-70.2,0.5-105.2c0-6-1.5-11.2-8.4-13
					c-1.1-0.3-2.7-2.1-2.5-2.8c0.3-1.2,1.7-2.6,2.9-3c6.1-2,12.3-3.8,18.5-5.6C240,935.2,240.9,936.3,240,942.7z"/>
				<path id="XMLID_560_" class="st0" d="M619.6,943.8c-0.2,27.5-0.6,55-0.7,82.5c0,13.5,0.4,26.9,0.7,40.4c0,2.1,0.5,4.3,0.8,6.4
					c0.8,5.5,5.6,6.3,9.5,7.9c2.1,0.8,3.5,1.9,2.3,4.2c-0.5,0.9-2.1,1.7-3.2,1.7c-4.4-0.2-8.8-0.9-13.2-1c-6.5-0.2-13.1,0-19.6-0.1
					c-1.6,0-3.9,1-4.4-1.8c-0.4-2.3,1.2-3.4,3.1-4.2c0.4-0.2,0.8-0.4,1.2-0.6c5.6-1.8,7.9-5.6,7.9-11.5c-0.1-7.1,0.6-14.2,0.7-21.4
					c0.2-19,0.4-38,0.4-57c0-9.6-0.3-19.2-0.5-28.8c-0.1-5.9-1.8-10.6-8.3-12.4c-1.1-0.3-2.6-2.1-2.5-2.8c0.3-1.2,1.6-2.6,2.9-3
					c6.1-2,12.3-3.8,18.5-5.6c3.9-1.1,5.5,0.2,5.4,4.3c0,1-0.1,2-0.2,3C620.1,943.8,619.8,943.8,619.6,943.8z"/>
			</g>
		</g>
		<g id="XMLID_556_">
			<text id="XMLID_557_" transform="matrix(1 0 0 1 268.0966 1199.0575)" class="st0 st1 st2 st3">LODGE</text>
		</g>
		<g id="XMLID_524_">
			<g id="XMLID_525_">
				<g id="XMLID_551_">
					<g id="XMLID_552_">
						<path id="XMLID_553_" class="st0" d="M573.9,885.3c-1.2,0-2.3-0.1-3.5-0.1c-83.2-0.2-166.5-0.4-249.7-0.6
							c-79.6-0.1-159.2-0.3-238.7,0.2c-12.4,0.1-16.9-3.2-15.8-15.8c0.9-11-0.2-22.1-0.4-33.2c0-2,0-4.1,0-6.1c0-1.1,0-2.1,0-3.2
							c0-26.4,0-52.7,0-79.1c0-70.9,0-141.8,0-212.6c0-14.7,0-29.4,0-44.1c0-15.9,0-31.9,0-47.8c0-22.1,0-44.2,0-66.3
							c0-5.4,0-10.8,0-16.1c-0.1-44,3.5-87.3,19.2-129c23.7-62.7,62.7-113.5,118.8-149.9C377.9-31.7,601.5,54.8,662.5,249.6
							c6.5,20.7,8,42.3,12.6,63.3c0.3,52.9,0.5,105.8,0.8,158.8c0,101.3,0,202.7,0,304c0,7.5,0,15,0,22.5
							c-0.2,28.5-0.4,56.9-0.7,85.4c-12.2,0.7-24.4,1.5-36.7,2.2c-18.9-1.6-37.8-2.6-56.6,0.7C579.5,884.2,576.7,884.3,573.9,885.3z
							 M89.1,740.9c0,25.4,0,50.7,0,76.1c-0.2,7.9-0.6,15.8-0.4,23.7c0.4,23-5,22.1,21.7,22.1c174.6,0.1,349.3-0.1,523.9,0.5
							c15.3,0.1,19.2-4,19.2-19.2c-0.6-166.7-0.4-333.4-0.4-500.1c0-18-0.5-35.8-4.7-53.4c-15.1-88.6-62.1-156.1-139.6-200
							C426.2,43.7,340,40,253,80.4c-91.4,44-144,116.9-161.1,216.2c-6.2,36.1-3.1,72.6-3.2,108.9C88.5,517.3,88.9,629.1,89.1,740.9z
							"/>
					</g>
				</g>
				<g id="XMLID_526_">
					<g id="XMLID_527_">
						<path id="XMLID_528_" class="st0" d="M118.7,810.5c0-22.1,0-44.3,0.1-66.4c0.2-88.2,0.5-176.3,0.7-264.5
							c0.1-43.8-0.1-87.7,0-131.5c0.3-109.5,49.2-189.4,146.3-239.9c2.3-1.2,4.5-2.6,6.8-4c47.3-17.8,96-25.6,145.8-14.8
							c98.6,21.4,162.8,81.5,194.7,176.8c2.3,7,3.9,14.2,5.8,21.3c3.8,19.8,5.2,39.7,5.2,59.8c0,155.7-0.2,311.3,0.3,467
							c0,14.4-4.4,17.5-17.9,17.4c-155.1-0.4-310.2-0.5-465.3,0.3C123.7,832.1,116.9,827.4,118.7,810.5z M380.2,186.6l-0.3-0.2
							c7.2,10.8,14.2,21.7,21.5,32.4c10.1,14.9,13.3,14.9,23.6,0.1c1.5-2.1,2.2-4.7,3.3-7.1c27-27.8,12.4-76.3-14.4-95.9
							c-32.3-23.8-75.2-17.2-98.9,15.7c-20.3,27.4-18.6,63.9,3.7,89.7c6.8,7.9,10.8,10.4,17.9-0.7c10.1-15.7,19.3-32.3,34.2-44.5
							c2.1,2.3,4.1,4.7,6.2,7C378,184.2,379.1,185.4,380.2,186.6z M558,549.3l1.3,0.8l1.1-1c17.9-9.7,32.6-23.1,44.2-39.7
							c3.1-4.4,8.8-13-4.4-11.8c-41.6,3.8-81.3,12.5-110.4,46.4c-20.4,22.5-29.2,49.6-33.3,81.7c31.7-28.6,65.1-50,98-72.1
							C556.7,553,557.9,551.6,558,549.3z M357.8,683.8c-0.3,41.2-0.3,82.4-1,123.5c-0.2,12.2,6.9,11.8,15.4,11.9
							c8.7,0.1,15.6-0.1,15.4-12c-0.6-42.2-0.7-84.4-0.9-126.6c0.3-52.5,0.3-105.1,0.9-157.6c0.2-11.9-7.1-10.8-14.5-10.4
							c-7.2,0.3-16.4-3.2-16.3,10.3C357.5,576.5,357.6,630.1,357.8,683.8z M603.2,532.7c-28.2,25.7-61.1,44.8-92.4,66.2
							c-18.7,12.8-37.4,25.8-50.4,44.9c-2.9,4.2-9.8,11.6,3.6,12.5c71.7,4.8,134.5-48.1,142.5-120.3c1.5-1.8,1.7-3.8,0.5-5.8
							C605.7,531,604.5,531.8,603.2,532.7z M405.9,465.8c16.1-14.5,33.2-27.6,51.2-39.6c23.7-15.8,47-32.1,70.1-48.7
							c10.7-7.7,20-17.3,26.4-29.1c3.3-6.1,2.3-10.1-6.1-9.1c-28.4,3.3-56.8,7.4-81.7,22.6c-38.8,23.7-58.5,58.9-59.8,104.3
							c-0.7-0.3-1.4-0.5-2.2-0.8c0.2,0.3,0.4,0.9,0.6,0.9C405,466.2,405.5,465.9,405.9,465.8z M401.4,655.2
							c-0.3,51.1-0.6,102.1-1.1,153.2c-0.1,8.4,3.7,11.2,11.6,10.8c5.8-0.3,11.6-0.5,17.4,0c9.3,0.8,11.5-3.7,11.4-12.2
							c-0.4-53.7-0.4-107.4-0.6-161.2c4.3-28,5.2-56.8,19.7-82.3c11.9-15.1,19.4-33,36.3-44.8c30.5-21.4,64.3-31.6,100.6-33.8
							c13.4-0.8,15.4-5.6,15-17c-0.7-19-2.6-38.4,0.3-56.9c5.3-33.7-20.7-45.6-38.2-65.3c-4.5,6.8-3,12.2-3.6,17.3
							c-7.4,57.2-27.8,106.1-84.5,131.8c-23.4,10.6-48.4,14.6-73.6,17c-8.3,0.8-12.4,3.2-11.9,12.3c0.9,16.3,0.8,32.7,1.1,49
							C399.8,600.4,399.5,627.8,401.4,655.2z M342.2,690.1c1.6-52.8,1.3-105.6,0.2-158.3c3.1-13.2,0.2-21.6-15.6-20.7
							c-4.1,0.2-8.4-0.9-12.5-1.4c-76-7.9-124.2-53-136.9-128.4c-2.1-12.5-3.6-25.1-6-41.7c-10.2,10.8-17.2,19.5-25.4,26.6
							c-10.4,9-14.3,19.3-13.7,33.1c1,23.1,0.8,46.4,0.1,69.5c-0.3,10.9,2,15.1,14.3,16c49.8,3.7,95.1,18.1,126.9,60.4
							c22.5,35.6,30.4,75.2,31.4,116.6c0,1,0,2.1,0,3.1c0,21.1,0,42.2,0.1,63.3c-0.2,26.3-0.1,52.6-0.7,78.8
							c-0.2,8.7,2.7,12.8,11.7,12.2c5.2-0.3,10.5-0.3,15.8,0c7.8,0.4,11.5-2.5,11.4-10.8C342.6,768.9,342.4,729.5,342.2,690.1z
							 M495.8,246.9c38.8,37.1,77.6,74.2,115.6,110.5c0.7-28.9-1-59.6-12.3-89.1c-6.7-28.5-21.2-53.2-38.2-76.7
							c-6-8.3-12.7-12.4-23.6-11.9c-22.1,1-44.2,0-66.3,0.5c-6.1,0.1-14.7-4-17.2,6.1c-2.1,8.5-4,16.6,4.8,24.2
							C471.7,221.7,483.4,234.7,495.8,246.9z M290.5,712.5c0-12.7,0-25.4,0.1-38.1c0.3-2-0.4-3.3-2.5-3.5c-3-0.3-5.9-0.6-8.9-0.9
							c-2-0.5-4.1-1.2-6.1-1.3c-60.7-5-109.9-28-136.5-86.6c-0.3-0.7-1.5-1-3.3-2.1c0,46.7,0,92.8,0,138.9c0,29.5,0,59.1,0,88.6
							c-2,7.9,0.4,11.7,9.3,11.7c45.8-0.2,91.5-0.1,137.3,0.1c7.7,0,11.6-2.1,11.4-10.7c-0.6-25.8-0.5-51.5-0.7-77.3
							c0-5.2,0.1-10.4,0.1-15.7C290.9,714.5,290.9,713.5,290.5,712.5z M611.5,581c-18.2,35.8-44.3,61.1-81.3,74.9
							c-20.4,7.6-41.3,12.7-63.2,13c-7.6,0.1-14.2,0.6-14.1,11.8c0.6,42.2,0.3,84.4,0.1,126.6c0,7.7,2.2,11.7,10.7,11.7
							c45.9-0.1,91.8-0.1,137.7,0.1c7.5,0,10.1-3,10.1-10.4C611.4,732.9,611.5,657,611.5,581z M553.1,325.8c-5-5.9-7.8-9.6-11-12.9
							c-25.9-26.4-51.8-52.7-77.8-78.9c-17.2-17.3-16.3-16.2-34.7-0.5c-10.5,9-10.1,15.4-3.9,26.1c13.1,22.5,17.7,46.4,5.3,71
							c-17.2,34.1-56.5,47.7-90.1,31.7c-36.1-17.2-50.3-56.6-30.8-94.6c9.2-18,10.8-30.2-5.2-44.4c-7-6.2-9.2-8.6-16.5-1.1
							c-30,31.2-60.8,61.6-91.1,92.5c-2.7,2.7-7.4,4.7-5.9,11.1c9.1,0.9,18.5,1.5,27.8,2.9c60.2,9.4,105.9,37.6,125.9,98.4
							c5.4,16.5,9,33.5,10.5,51c0.9,10.4-1.8,21.7,16.5,21.7c17.6,0.1,16.6-9.9,17.3-21c0.2-2.6,0.3-5.3,0.6-7.9
							c6.5-52.2,25.5-96.9,74.7-123.1C491,333.6,519.9,328.3,553.1,325.8z M133.2,358.8c25.9-25.3,50.1-48.8,74-72.6
							c26.2-26.1,51.7-52.9,78.1-78.7c7.3-7.2,5.2-14,3.5-21.7c-2-8.8-9.2-5.5-14.2-5.6c-23.8-0.3-47.5-0.1-71.3-0.2
							c-6.5,0-12,0.4-16.7,6.4C146.6,236.5,128.8,293.2,133.2,358.8z M425.3,305.3c0.1-15-6-31.4-13.9-45.7
							c-3.9-7.1-7.8-8.3-15.1-5.6c-13.6,5-27.8,5.3-42,2.3c-23.8-5-23.8-4.9-34.1,18.3c-1.3,2.9-2.6,5.8-3.6,8.7
							c-7.3,22.5-1.2,41.6,15.3,57.6c15.3,14.8,41.5,19.1,60.3,10C413,341,424,324.1,425.3,305.3z M339.2,466.5
							c0-5.5,0.4-8.1-0.1-10.5c-16.8-85.3-71.2-110.7-144.6-116.7c-8.6-0.7-6.6,4.8-4.2,9.1c5.2,9.3,12.3,17,20.3,23.9
							C250.6,406.4,299,428.8,339.2,466.5z M287.6,625.6c-10.7-89.9-68.9-123-142.6-128.4c-11.2-0.8-9.8,4.7-5.6,11.4
							c9.2,14.6,22.3,25.2,35.9,35.3C211.6,571,252.3,591.8,287.6,625.6z M191.5,372.3c-1.2,2.2-1.7,2.7-1.7,3.1
							c11,84.8,68.7,119.1,143.7,122.8c9,0.4,7.8-4.7,4.5-10.2c-8.1-13.4-19.7-23.3-31.9-32.6C269,426.9,226.5,405.9,191.5,372.3z
							 M274.7,655.6c4-0.7,9.8,3.3,12.5-1.8c2.5-4.7-2.3-8.7-4.8-12.5c-7.5-11.1-17.7-19.5-28.2-27.5c-34.8-26.6-73.8-47.2-107.1-76
							c-2.6-2.2-5.5-4-8.5-2.3c-4,2.2-0.8,5.3-0.1,8.2C154.1,614.1,196.1,648.7,274.7,655.6z M553.6,371.9
							c-39.5,37.2-88.1,59.5-128,93.9c-7.6,6.5-14.4,13.8-19.6,22.6c-4.6,7.8-2.4,10.2,6.1,10c18.1-0.6,35.6-4.3,52.7-9.6
							C515.8,473.1,553.9,423.8,553.6,371.9z M319.2,104.8c-43.1,9.3-80,28.4-110,60.3c23.5,1.8,46.2,1.9,68.9,1.8
							c4.7,0,9.7,0.6,10.7-6.2C292.3,138.6,303.6,120.8,319.2,104.8z M427.6,107.5c12.8,15.8,23.4,31.7,26,51.8
							c0.6,4.7,3,7.6,8.3,7.6c23.9-0.1,47.8,0,71.7,0C504.1,134.9,470,113.8,427.6,107.5z M371.8,244.9c8-1.4,20.2,1.2,24.2-6
							c3.6-6.5-6.6-13.9-10.6-21c-0.3-0.5-0.6-0.9-0.9-1.3c-14.8-21.3-14.9-21.4-29.5-0.4c-4.7,6.7-14.4,14.4-11.2,21
							c4.1,8.6,16.7,5.7,25.7,7.6C370,245,370.5,244.9,371.8,244.9z"/>
					</g>
				</g>
			</g>
		</g>
	</g>
</g>
</svg>
