<?xml version="1.0" encoding="utf-8"?>
<!-- Generator: Adobe Illustrator 19.0.0, SVG Export Plug-In . SVG Version: 6.00 Build 0)  -->
<svg version="1.1" id="Layer_1" xmlns="http://www.w3.org/2000/svg" xmlns:xlink="http://www.w3.org/1999/xlink" x="0px" y="0px"
	 viewBox="-138 379.2 317.2 82.7" style="enable-background:new -138 379.2 317.2 82.7;" xml:space="preserve">
<style type="text/css">
	.st0{fill:#1A66D2;}
</style>
<g>
	<path id="XMLID_11696_" class="st0" d="M36.1,410c-0.2,1-0.5,1.6-0.5,2.3c0.1,5.3,0.3,10.7,0.6,16c0.1,3,0.5,5.9,0.7,8.9
		c0.2,2.4,0.9,3.3,3.1,4c1.5,0.5,3,0.7,4.4,1.1c0.6,0.1,1.5,0.1,1.4,1.1c-0.1,0.9-0.8,1-1.6,1c-1.7,0-3.5-0.1-5.2-0.1
		c-3.4-0.1-6.8-0.2-10.2-0.3c-0.3,0-0.7-0.2-1-0.3c0.2-0.5,0.5-0.8,0.7-1.3h0.1c3.1-0.6,3.3-2.8,3.3-5.2c0.1-4.2,0.2-8.4,0.2-12.6
		c0.1-5.6,0.1-11.1,0.2-16.7c0-1.7-0.6-3.1-1.8-4c-1.6-1.1-3.3-2.3-4.9-3.4c-0.3-0.2-0.6-0.7-0.6-1c0-0.2,0.6-0.6,0.9-0.6
		c2.6,0,5.1-0.1,7.7,0c0.6,0,1.3,0.6,1.7,1c4.7,5.5,9.3,11,14,16.6c4,4.8,8.1,9.4,12.1,14.2c0.5,0.5,1.1,0.8,1.8,1.1
		c0.1-0.7,0.5-1.4,0.5-2c0.1-1.5,0-3,0-4.3c-0.1-6-0.3-12.1-0.5-18.1c-0.1-3.3-1.5-4.9-4.7-5.7c-1.5-0.3-2.8-0.7-4.3-1
		c-0.6-0.1-1.4-0.2-1.3-1.3c0.1-0.9,0.8-0.9,1.5-0.9c5.3,0.2,10.7,0.3,16,0.6c0.3,0,0.8,0.2,0.8,0.5c0.1,0.2-0.2,0.7-0.5,0.9
		s-0.6,0.3-0.8,0.5c-1.9,0.7-2.6,2.2-2.6,4.1c0,9.7,0,19.3,0,29.1c0,2.7,0.5,5.5,0.8,8.2c0.1,0.9-0.1,1.5-1,1.9
		c-3.1,1.6-2.8,1.5-4.9-1.3c-4.1-5.8-8.4-11.5-12.7-17.1c-3.6-4.7-7.7-9-11.6-13.4C37.6,411.3,37,410.8,36.1,410z"/>
	<path id="XMLID_11693_" class="st0" d="M-98.2,398.7c3.6-0.2,7.2-0.6,10.8-0.6c7.2-0.1,12.9,5.8,13,13c0.1,4.5-1.6,8-5.5,10.2
		c-2,1.3-4.3,2.4-6.6,3.1c-1.9,0.6-4.2,0.3-6.3,0.3c-3.1,0-3.1,0-3.1,3.1c0,3.4,0.1,6.8,0.2,10.2c0.1,1.8,0.8,2.8,2.6,3.3
		c1.5,0.5,3,0.8,4.4,1.3c0.6,0.1,1.3,0.2,0.9,1c-0.2,0.5-0.8,0.9-1.1,0.9c-2.7-0.1-5.6-0.3-8.3-0.5c-2.2-0.1-4.3,0-6.6,0
		c-0.3,0-0.8-0.2-1.1-0.5c0.2-0.5,0.3-1,0.7-1.3c2.4-1,2.7-3,2.7-5.2c0.1-10.7,0.2-21.3,0.5-32c0-2.2-0.6-4-3-4.8
		c-0.3-0.1-0.6-0.8-0.8-1.1c0.5-0.2,0.8-0.8,1.3-0.8C-101.7,398.4-100,398.5-98.2,398.7C-98.2,398.5-98.2,398.5-98.2,398.7z
		 M-95.7,411.7c-0.1,0-0.1,0-0.2,0c0,2.4,0,4.7,0,7.1c0,1.5,0.3,1.9,1.7,2c2.8,0.1,5.7,0.2,8.5,0.1c3.2-0.2,5.3-2.2,5.8-5
		c0.2-1.9,0.3-4-0.1-5.9c-1.5-6.8-8.9-9.3-14.3-8.8c-1,0.1-1.4,0.9-1.4,1.9C-95.7,405.9-95.7,408.8-95.7,411.7z"/>
	<path id="XMLID_11692_" class="st0" d="M-47.3,441.6c-1.7,0.7-3.4,1.6-5.1,2.2c-3.8,1.3-7.5,0.9-10.9-1c-3.4-1.9-4.8-5.1-4.8-8.9
		c-0.1-3.1,0-6,0-9.1c0-2.6-0.1-5.3-0.1-8c0-1.5-0.6-2.3-1.9-2.8c-0.5-0.2-0.8-0.8-1.1-1.1c0.6-0.3,1-0.8,1.6-0.9
		c1.6-0.3,3.2-0.6,4.9-0.9c1.5-0.3,1.8-0.1,1.8,1.5c0,6.3,0,12.5,0,18.8c0,1.3,0,2.6,0.3,3.9c0.7,3.2,3,5.1,6.3,5.3
		c3.2,0.3,6-0.7,8.5-2.7c0.5-0.3,0.7-1,0.7-1.6c0-6.5,0-13.1,0-19.6c0-1.1-0.6-1.9-1.6-2.3c-0.8-0.2-1.6-0.3-2.4-0.8
		c-0.5-0.2-0.7-0.7-1-1.1c0.5-0.3,0.8-0.9,1.4-1c1.4-0.2,2.7-0.3,4.2-0.6c1.1-0.1,2.4-0.3,3.5-0.5c1-0.1,1.5,0.5,1.4,1.4
		c0,1.3-0.1,2.5-0.1,3.8c0,6.7-0.1,13.4-0.1,20.1c0,0.9,0,1.9,0.1,2.8c0.1,1.6,0.6,1.9,2.2,2.3c0.5,0.1,0.9,0.6,1.4,0.9
		c-0.5,0.5-0.8,1.1-1.3,1.3c-1.5,0.5-3,0.8-4.4,0.9c-1.8,0.2-2-0.1-2.8-1.7C-47,442-47.1,441.8-47.3,441.6z"/>
	<path id="XMLID_11689_" class="st0" d="M-1.5,441.5c-0.6,0.3-0.9,0.6-1.3,0.8c-3,1.9-6.1,3.1-9.8,2.2c-2.5-0.6-4.3-1.9-5.1-4.5
		c-0.8-2.7-0.1-5,1.8-6.9c2.4-2.4,5.3-4,8.3-5.5c1.6-0.9,3.2-1.7,4.9-2.4c1-0.5,1.5-1.1,1.4-2.3c-0.1-1.5-0.1-2.8-0.2-4.3
		c-0.3-2.7-1.6-4.1-4.3-4.5c-3.1-0.5-5.9,0.5-8.8,1.6c-0.7,0.2-1.3,0.7-1.9,0.9c-0.3,0.1-0.8,0.1-1,0c-0.2-0.1-0.1-0.7,0-1
		c1.1-2.5,2.7-4.2,5.7-4.7c3.3-0.6,6.5-1.1,9.9-0.5c3.6,0.8,5.9,3.2,5.9,6.9c0,5.3-0.3,10.7-0.3,16c0,2,0.2,4.1,0.5,6.1
		c0.2,1.5,1.6,1.6,2.8,1.8c0.6,0.1,1.4-0.1,1.4,0.9c0,1-0.6,1.3-1.5,1.4c-2.2,0.2-4.2,0.6-6.4,0.9c-0.9,0.1-1.5-0.2-1.5-1.3
		C-1.2,442.7-1.4,442.2-1.5,441.5z M-1.3,428.1c-0.6,0.1-0.8,0.1-1,0.2c-2.6,1.5-5.3,3-8,4.7c-0.9,0.6-1.6,1.6-2,2.5
		c-0.9,1.8-0.1,3.9,1.7,4.7c4.1,1.9,9-0.9,9.2-5.3c0-0.2,0-0.5,0-0.6C-1.3,432.2-1.3,430.3-1.3,428.1z"/>
	<path id="XMLID_11643_" class="st0" d="M92.1,441.6c-1.4,0.8-2.5,1.5-3.8,2c-2.6,1.3-5.5,1.6-8.2,0.6c-4.4-1.5-5.9-6.7-3.1-10.5
		c1.7-2.2,4-3.5,6.3-4.8c2.5-1.4,5-2.6,7.6-4c1-0.5,1.5-1.3,1.5-2.4c-0.1-1.5-0.1-2.8-0.3-4.3c-0.5-2.7-1.7-4.1-4.5-4.4
		c-3.1-0.5-5.9,0.5-8.6,1.6c-0.7,0.2-1.3,0.7-1.9,0.9c-0.3,0.1-0.8,0-1-0.1c-0.1-0.1-0.1-0.6,0-0.9c1.1-2.4,2.6-4.3,5.6-4.7
		c2.5-0.2,5-0.8,7.5-0.9c2-0.1,4,0.6,5.8,1.7c1.8,1.1,2.7,3,2.7,5c0,5.3-0.2,10.7-0.2,16c0,2.2,0.1,4.3,0.3,6.5
		c0.1,1.4,1,1.9,2.8,2.2c0.6,0.1,1.5-0.1,1.5,0.9s-0.6,1.3-1.5,1.4c-2,0.2-4,0.6-6,0.9c-1.1,0.1-1.8-0.1-1.8-1.5
		C92.4,442.6,92.2,442.2,92.1,441.6z M91.9,428c-1.8,1-3.6,1.8-5.3,2.8c-1.6,1-3.3,2-4.7,3.5c-2,2.3-1.1,5.2,1.8,6.1
		c0.8,0.2,1.7,0.3,2.6,0.2c2.7-0.1,5.3-1.9,5.7-4.2c0.3-2.5,0.2-5.1,0.3-7.7C92.3,428.7,92.2,428.5,91.9,428z"/>
	<path id="XMLID_11640_" class="st0" d="M137.3,441.6c-1,0.6-1.8,1.1-2.7,1.7c-3.1,1.7-6.3,2.3-9.6,0.9c-4.2-1.7-5.6-6.8-2.5-10.2
		c1.7-1.9,4-3.3,6.1-4.7c2.3-1.5,4.7-2.6,7.2-3.8c1.5-0.7,2-1.7,1.8-3.2c-0.1-1.3-0.1-2.5-0.3-3.8c-0.5-2.7-1.7-4-4.4-4.4
		c-3.1-0.5-5.9,0.5-8.8,1.6c-0.7,0.2-1.3,0.7-1.9,0.9c-0.3,0.1-0.8,0-1-0.1c-0.1-0.1-0.1-0.6,0-0.9c1.1-2.5,2.7-4.2,5.7-4.7
		c2.8-0.5,5.7-1.1,8.6-0.7c0.7,0.1,1.5,0.2,2.2,0.5c4,1.4,5.3,3.9,5.2,8.6c-0.2,5.6-0.2,11.3-0.3,16.8c0,0.7,0.1,1.4,0.1,1.9
		c0.1,2.3,0.8,2.8,3,3.2c0.5,0.1,1.3,0.5,1.4,0.8c0.1,0.8-0.3,1.4-1.3,1.4c-2,0.2-4.2,0.6-6.3,0.9c-1.1,0.1-1.7-0.2-1.7-1.5
		C137.7,442.6,137.4,442.1,137.3,441.6z M137.4,428.1c-0.5,0.1-0.7,0.2-0.9,0.3c-2.3,1.3-4.5,2.5-6.8,3.9c-0.9,0.6-1.8,1.4-2.5,2.2
		c-1.8,2.4-1,5.1,1.9,6c2.2,0.7,4.2,0.1,6.1-1c1.4-0.8,2.2-1.9,2.3-3.5c0.1-2.3,0.1-4.4,0.2-6.7C137.7,429,137.4,428.6,137.4,428.1z
		"/>
	<path id="XMLID_11639_" class="st0" d="M-25.8,391.7c-0.1,9.8-0.2,19.6-0.2,29.3c0,5.3,0.1,10.8,0.2,16.1c0.1,3.3,0.6,4,3.6,5.1
		c0.5,0.2,1,0.8,1,1.1c0.1,0.9-0.7,1-1.4,1c-1.5-0.1-3-0.3-4.4-0.3c-2.5-0.1-4.9,0-7.4-0.1c-0.6,0-1.4-0.2-1.6-0.6
		c-0.3-0.8,0.3-1.4,1-1.6c0.1,0,0.1-0.1,0.2-0.1c2.4-0.7,3.2-2.5,3.2-4.8c0-12.9,0.1-25.7,0.2-38.6c0-2.2-0.6-4.1-3.1-4.8
		c-0.5-0.1-1-0.8-0.9-1c0.1-0.5,0.6-0.9,1-1.1c2.3-0.8,4.5-1.4,6.7-2C-25.8,388.9-25.4,389.3-25.8,391.7z"/>
	<path id="XMLID_11638_" class="st0" d="M113.1,392.1c-0.1,10-0.2,20.1-0.2,30.1c0,4.9,0.1,9.9,0.2,14.8c0,0.8,0.2,1.6,0.3,2.4
		c0.3,2,2,2.3,3.5,2.8c0.8,0.3,1.3,0.7,0.8,1.5c-0.2,0.3-0.8,0.6-1.1,0.6c-1.6-0.1-3.2-0.3-4.8-0.3c-2.4-0.1-4.8,0-7.2,0
		c-0.6,0-1.5,0.3-1.6-0.7c-0.1-0.9,0.5-1.3,1.1-1.6c0.1-0.1,0.3-0.1,0.5-0.2c2-0.7,2.8-2,2.8-4.2c0-2.6,0.2-5.2,0.2-7.8
		c0.1-6.9,0.1-13.9,0.1-20.9c0-3.5-0.1-7.1-0.2-10.6c0-2.2-0.7-3.9-3.1-4.5c-0.3-0.1-1-0.8-0.9-1c0.1-0.5,0.6-0.9,1-1.1
		c2.3-0.8,4.5-1.4,6.7-2c1.5-0.5,2,0.1,1.9,1.6c0,0.3,0,0.8-0.1,1.1C113.3,392.1,113.2,392.1,113.1,392.1z"/>
</g>
</svg>
