<?xml version="1.0" encoding="utf-8"?>
<!-- Generator: Adobe Illustrator 19.0.0, SVG Export Plug-In . SVG Version: 6.00 Build 0)  -->
<svg version="1.1" id="Layer_1" xmlns="http://www.w3.org/2000/svg" xmlns:xlink="http://www.w3.org/1999/xlink" x="0px" y="0px"
	 viewBox="0 0 317.2 82.7" style="enable-background:new 0 0 317.2 82.7;" xml:space="preserve">
<style type="text/css">
	.st0{fill:none;stroke:#9A8D7A;stroke-miterlimit:10;}
	.st1{fill:#9A8D7A;}
	.st2{font-family:'Helvetica';}
	.st3{font-size:19.2254px;}
	.st4{letter-spacing:3,8;}
</style>
<line id="XMLID_23_" class="st0" x1="0.4" y1="70.4" x2="118.6" y2="70.4"/>
<line id="XMLID_55_" class="st0" x1="210" y1="70.4" x2="317.2" y2="70.4"/>
<path id="XMLID_11696_" class="st1" d="M176.1,18.3c-0.2,0.9-0.4,1.4-0.4,2c0.1,4.7,0.3,9.4,0.5,14.1c0.1,2.6,0.4,5.2,0.6,7.8
	c0.2,2.1,0.8,2.9,2.7,3.5c1.3,0.4,2.6,0.6,3.9,1c0.5,0.1,1.3,0.1,1.2,1c-0.1,0.8-0.7,0.9-1.4,0.9c-1.5,0-3.1-0.1-4.6-0.1
	c-3-0.1-6-0.2-9-0.3c-0.3,0-0.6-0.2-0.9-0.3c0.2-0.4,0.4-0.7,0.6-1.1c0,0,0.1,0,0.1,0c2.7-0.5,2.9-2.5,2.9-4.6
	c0.1-3.7,0.2-7.4,0.2-11.1c0.1-4.9,0.1-9.8,0.2-14.7c0-1.5-0.5-2.7-1.6-3.5c-1.4-1-2.9-2-4.3-3c-0.3-0.2-0.5-0.6-0.5-0.9
	c0-0.2,0.5-0.5,0.8-0.5c2.3,0,4.5-0.1,6.8,0c0.5,0,1.1,0.5,1.5,0.9c4.1,4.8,8.2,9.7,12.3,14.6c3.5,4.2,7.1,8.3,10.6,12.5
	c0.4,0.4,1,0.7,1.6,1c0.1-0.6,0.4-1.2,0.4-1.8c0.1-1.3,0-2.6,0-3.8c-0.1-5.3-0.3-10.6-0.4-15.9c-0.1-2.9-1.3-4.3-4.1-5
	c-1.3-0.3-2.5-0.6-3.8-0.9c-0.5-0.1-1.2-0.2-1.1-1.1c0.1-0.8,0.7-0.8,1.3-0.8c4.7,0.2,9.4,0.3,14.1,0.5c0.3,0,0.7,0.2,0.7,0.4
	c0.1,0.2-0.2,0.6-0.4,0.8c-0.2,0.2-0.5,0.3-0.7,0.4c-1.7,0.6-2.3,1.9-2.3,3.6c0,8.5,0,17,0,25.6c0,2.4,0.4,4.8,0.7,7.2
	c0.1,0.8-0.1,1.3-0.9,1.7c-2.7,1.4-2.5,1.3-4.3-1.1c-3.6-5.1-7.4-10.1-11.2-15c-3.2-4.1-6.8-7.9-10.2-11.8
	C177.4,19.4,176.9,19,176.1,18.3z"/>
<path id="XMLID_11693_" class="st1" d="M58,8.3c3.2-0.2,6.3-0.5,9.5-0.5c6.3-0.1,11.3,5.1,11.4,11.4c0.1,4-1.4,7-4.8,9
	c-1.8,1.1-3.8,2.1-5.8,2.7c-1.7,0.5-3.7,0.3-5.5,0.3c-2.7,0-2.7,0-2.7,2.7c0,3,0.1,6,0.2,9c0.1,1.6,0.7,2.5,2.3,2.9
	c1.3,0.4,2.6,0.7,3.9,1.1c0.5,0.1,1.1,0.2,0.8,0.9c-0.2,0.4-0.7,0.8-1,0.8c-2.4-0.1-4.9-0.3-7.3-0.4c-1.9-0.1-3.8,0-5.8,0
	c-0.3,0-0.7-0.2-1-0.4c0.2-0.4,0.3-0.9,0.6-1.1c2.1-0.9,2.4-2.6,2.4-4.6c0.1-9.4,0.2-18.7,0.4-28.1c0-1.9-0.5-3.5-2.6-4.2
	c-0.3-0.1-0.5-0.7-0.7-1c0.4-0.2,0.7-0.7,1.1-0.7C54.9,8.1,56.4,8.2,58,8.3C58,8.2,58,8.2,58,8.3z M60.2,19.8c-0.1,0-0.1,0-0.2,0
	c0,2.1,0,4.1,0,6.2c0,1.3,0.3,1.7,1.5,1.8c2.5,0.1,5,0.2,7.5,0.1c2.8-0.2,4.7-1.9,5.1-4.4c0.2-1.7,0.3-3.5-0.1-5.2
	c-1.3-6-7.8-8.2-12.6-7.7c-0.9,0.1-1.2,0.8-1.2,1.7C60.2,14.7,60.2,17.2,60.2,19.8z"/>
<path id="XMLID_11692_" class="st1" d="M102.8,46.1c-1.5,0.6-3,1.4-4.5,1.9c-3.3,1.1-6.6,0.8-9.6-0.9c-3-1.7-4.2-4.5-4.2-7.8
	c-0.1-2.7,0-5.3,0-8c0-2.3-0.1-4.7-0.1-7c0-1.3-0.5-2-1.7-2.5c-0.4-0.2-0.7-0.7-1-1c0.5-0.3,0.9-0.7,1.4-0.8
	c1.4-0.3,2.8-0.5,4.3-0.8c1.3-0.3,1.6-0.1,1.6,1.3c0,5.5,0,11,0,16.5c0,1.1,0,2.3,0.3,3.4c0.6,2.8,2.6,4.5,5.5,4.7
	c2.8,0.3,5.3-0.6,7.5-2.4c0.4-0.3,0.6-0.9,0.6-1.4c0-5.7,0-11.5,0-17.2c0-1-0.5-1.7-1.4-2c-0.7-0.2-1.4-0.3-2.1-0.7
	c-0.4-0.2-0.6-0.6-0.9-1c0.4-0.3,0.7-0.8,1.2-0.9c1.2-0.2,2.4-0.3,3.7-0.5c1-0.1,2.1-0.3,3.1-0.4c0.9-0.1,1.3,0.4,1.2,1.2
	c0,1.1-0.1,2.2-0.1,3.3c0,5.9-0.1,11.8-0.1,17.7c0,0.8,0,1.7,0.1,2.5c0.1,1.4,0.5,1.7,1.9,2c0.4,0.1,0.8,0.5,1.2,0.8
	c-0.4,0.4-0.7,1-1.1,1.1c-1.3,0.4-2.6,0.7-3.9,0.8c-1.6,0.2-1.8-0.1-2.5-1.5C103,46.4,102.9,46.2,102.8,46.1z"/>
<path id="XMLID_11689_" class="st1" d="M143,46c-0.5,0.3-0.8,0.5-1.1,0.7c-2.6,1.7-5.4,2.7-8.6,1.9c-2.2-0.5-3.8-1.7-4.5-4
	c-0.7-2.4-0.1-4.4,1.6-6.1c2.1-2.1,4.7-3.5,7.3-4.8c1.4-0.8,2.8-1.5,4.3-2.1c0.9-0.4,1.3-1,1.2-2c-0.1-1.3-0.1-2.5-0.2-3.8
	c-0.3-2.4-1.4-3.6-3.8-4c-2.7-0.4-5.2,0.4-7.7,1.4c-0.6,0.2-1.1,0.6-1.7,0.8c-0.3,0.1-0.7,0.1-0.9,0c-0.2-0.1-0.1-0.6,0-0.9
	c1-2.2,2.4-3.7,5-4.1c2.9-0.5,5.7-1,8.7-0.4c3.2,0.7,5.2,2.8,5.2,6.1c0,4.7-0.3,9.4-0.3,14.1c0,1.8,0.2,3.6,0.4,5.4
	c0.2,1.3,1.4,1.4,2.5,1.6c0.5,0.1,1.2-0.1,1.2,0.8c0,0.9-0.5,1.1-1.3,1.2c-1.9,0.2-3.7,0.5-5.6,0.8c-0.8,0.1-1.3-0.2-1.3-1.1
	C143.3,47,143.1,46.6,143,46z M143.2,34.2c-0.5,0.1-0.7,0.1-0.9,0.2c-2.3,1.3-4.7,2.6-7,4.1c-0.8,0.5-1.4,1.4-1.8,2.2
	c-0.8,1.6-0.1,3.4,1.5,4.1c3.6,1.7,7.9-0.8,8.1-4.7c0-0.2,0-0.4,0-0.5C143.2,37.8,143.2,36.1,143.2,34.2z"/>
<path id="XMLID_11643_" class="st1" d="M225.3,46.1c-1.2,0.7-2.2,1.3-3.3,1.8c-2.3,1.1-4.8,1.4-7.2,0.5c-3.9-1.3-5.2-5.9-2.7-9.2
	c1.5-1.9,3.5-3.1,5.5-4.2c2.2-1.2,4.4-2.3,6.7-3.5c0.9-0.4,1.3-1.1,1.3-2.1c-0.1-1.3-0.1-2.5-0.3-3.8c-0.4-2.4-1.5-3.6-4-3.9
	c-2.7-0.4-5.2,0.4-7.6,1.4c-0.6,0.2-1.1,0.6-1.7,0.8c-0.3,0.1-0.7,0-0.9-0.1c-0.1-0.1-0.1-0.5,0-0.8c1-2.1,2.3-3.8,4.9-4.1
	c2.2-0.2,4.4-0.7,6.6-0.8c1.8-0.1,3.5,0.5,5.1,1.5c1.6,1,2.4,2.6,2.4,4.4c0,4.7-0.2,9.4-0.2,14.1c0,1.9,0.1,3.8,0.3,5.7
	c0.1,1.2,0.9,1.7,2.5,1.9c0.5,0.1,1.3-0.1,1.3,0.8c0,0.9-0.5,1.1-1.3,1.2c-1.8,0.2-3.5,0.5-5.3,0.8c-1,0.1-1.6-0.1-1.6-1.3
	C225.6,46.9,225.4,46.6,225.3,46.1z M225.2,34.1c-1.6,0.9-3.2,1.6-4.7,2.5c-1.4,0.9-2.9,1.8-4.1,3.1c-1.8,2-1,4.6,1.6,5.4
	c0.7,0.2,1.5,0.3,2.3,0.2c2.4-0.1,4.7-1.7,5-3.7c0.3-2.2,0.2-4.5,0.3-6.8C225.5,34.7,225.4,34.5,225.2,34.1z"/>
<path id="XMLID_11640_" class="st1" d="M265.1,46.1c-0.9,0.5-1.6,1-2.4,1.5c-2.7,1.5-5.5,2-8.4,0.8c-3.7-1.5-4.9-6-2.2-9
	c1.5-1.7,3.5-2.9,5.4-4.1c2-1.3,4.1-2.3,6.3-3.3c1.3-0.6,1.8-1.5,1.6-2.8c-0.1-1.1-0.1-2.2-0.3-3.3c-0.4-2.4-1.5-3.5-3.9-3.9
	c-2.7-0.4-5.2,0.4-7.7,1.4c-0.6,0.2-1.1,0.6-1.7,0.8c-0.3,0.1-0.7,0-0.9-0.1c-0.1-0.1-0.1-0.5,0-0.8c1-2.2,2.4-3.7,5-4.1
	c2.5-0.4,5-1,7.6-0.6c0.6,0.1,1.3,0.2,1.9,0.4c3.5,1.2,4.7,3.4,4.6,7.6c-0.2,4.9-0.2,9.9-0.3,14.8c0,0.6,0.1,1.2,0.1,1.7
	c0.1,2,0.7,2.5,2.6,2.8c0.4,0.1,1.1,0.4,1.2,0.7c0.1,0.7-0.3,1.2-1.1,1.2c-1.8,0.2-3.7,0.5-5.5,0.8c-1,0.1-1.5-0.2-1.5-1.3
	C265.4,46.9,265.2,46.5,265.1,46.1z M265.2,34.2c-0.4,0.1-0.6,0.2-0.8,0.3c-2,1.1-4,2.2-6,3.4c-0.8,0.5-1.6,1.2-2.2,1.9
	c-1.6,2.1-0.9,4.5,1.7,5.3c1.9,0.6,3.7,0.1,5.4-0.9c1.2-0.7,1.9-1.7,2-3.1c0.1-2,0.1-3.9,0.2-5.9C265.4,35,265.2,34.6,265.2,34.2z"
	/>
<path id="XMLID_11639_" class="st1" d="M121.7,2.2c-0.1,8.6-0.2,17.2-0.2,25.8c0,4.7,0.1,9.5,0.2,14.2c0.1,2.9,0.5,3.5,3.2,4.5
	c0.4,0.2,0.9,0.7,0.9,1c0.1,0.8-0.6,0.9-1.2,0.9c-1.3-0.1-2.6-0.3-3.9-0.3c-2.2-0.1-4.3,0-6.5-0.1c-0.5,0-1.2-0.2-1.4-0.5
	c-0.3-0.7,0.3-1.2,0.9-1.4c0.1,0,0.1-0.1,0.2-0.1c2.1-0.6,2.8-2.2,2.8-4.2c0-11.3,0.1-22.6,0.2-33.9c0-1.9-0.5-3.6-2.7-4.2
	c-0.4-0.1-0.9-0.7-0.8-0.9c0.1-0.4,0.5-0.8,0.9-1c2-0.7,4-1.2,5.9-1.8C121.7-0.3,122,0.1,121.7,2.2z"/>
<path id="XMLID_11638_" class="st1" d="M243.8,2.5c-0.1,8.8-0.2,17.7-0.2,26.5c0,4.3,0.1,8.7,0.2,13c0,0.7,0.2,1.4,0.3,2.1
	c0.3,1.8,1.8,2,3.1,2.5c0.7,0.3,1.1,0.6,0.7,1.3c-0.2,0.3-0.7,0.5-1,0.5c-1.4-0.1-2.8-0.3-4.2-0.3c-2.1-0.1-4.2,0-6.3,0
	c-0.5,0-1.3,0.3-1.4-0.6c-0.1-0.8,0.4-1.1,1-1.4c0.1-0.1,0.3-0.1,0.4-0.2c1.8-0.6,2.5-1.8,2.5-3.7c0-2.3,0.2-4.6,0.2-6.9
	c0.1-6.1,0.1-12.2,0.1-18.4c0-3.1-0.1-6.2-0.2-9.3c0-1.9-0.6-3.4-2.7-4c-0.3-0.1-0.9-0.7-0.8-0.9c0.1-0.4,0.5-0.8,0.9-1
	c2-0.7,4-1.2,5.9-1.8c1.3-0.4,1.8,0.1,1.7,1.4c0,0.3,0,0.7-0.1,1C244,2.5,243.9,2.5,243.8,2.5z"/>
<text id="XMLID_285_" transform="matrix(1.0582 0 0 1 121.0813 78.0116)" class="st1 st2 st3 st4">LODGE</text>
</svg>
