<?xml version="1.0" encoding="utf-8"?>
<!-- Generator: Adobe Illustrator 19.0.0, SVG Export Plug-In . SVG Version: 6.00 Build 0)  -->
<svg version="1.1" id="Layer_1" xmlns="http://www.w3.org/2000/svg" xmlns:xlink="http://www.w3.org/1999/xlink" x="0px" y="0px"
	 viewBox="-138 355.5 317.2 147" style="enable-background:new -138 355.5 317.2 147;" xml:space="preserve">
<style type="text/css">
	.st0{fill:#3594D1;}
</style>
<path id="XMLID_11389_" class="st0" d="M52.4,497.7c-0.2,0-0.4,0-0.6,0c-13.5,0-26.9-0.1-40.4-0.1c-12.9,0-25.7-0.1-38.6,0
	c-2,0-2.7-0.5-2.6-2.6c0.2-1.8,0-3.6-0.1-5.4c0-0.3,0-0.7,0-1c0-0.2,0-0.3,0-0.5c0-4.3,0-8.5,0-12.8c0-11.5,0-22.9,0-34.4
	c0-2.4,0-4.8,0-7.1c0-2.6,0-5.2,0-7.7c0-3.6,0-7.1,0-10.7c0-0.9,0-1.7,0-2.6c0-7.1,0.6-14.1,3.1-20.9c3.8-10.1,10.1-18.4,19.2-24.2
	c28.2-18.3,64.3-4.3,74.2,27.2c1,3.3,1.3,6.8,2,10.2c0,8.6,0.1,17.1,0.1,25.7c0,16.4,0,32.8,0,49.2c0,1.2,0,2.4,0,3.6
	c0,4.6-0.1,9.2-0.1,13.8c-2,0.1-4,0.2-5.9,0.4c-3.1-0.3-6.1-0.4-9.2,0.1C53.3,497.5,52.8,497.6,52.4,497.7z M-26,474.4
	c0,4.1,0,8.2,0,12.3c0,1.3-0.1,2.6-0.1,3.8c0.1,3.7-0.8,3.6,3.5,3.6c28.2,0,56.5,0,84.7,0.1c2.5,0,3.1-0.6,3.1-3.1
	c-0.1-27-0.1-53.9-0.1-80.9c0-2.9-0.1-5.8-0.8-8.6c-2.4-14.3-10-25.2-22.6-32.3c-13.2-7.7-27.2-8.3-41.2-1.7
	c-14.8,7.1-23.3,18.9-26.1,35c-1,5.8-0.5,11.7-0.5,17.6C-26.1,438.2-26.1,456.3-26,474.4z"/>
<path id="XMLID_85_" class="st0" d="M-21.2,485.6c0-3.6,0-7.2,0-10.7c0-14.3,0.1-28.5,0.1-42.8c0-7.1,0-14.2,0-21.3
	c0-17.7,8-30.6,23.7-38.8c0.4-0.2,0.7-0.4,1.1-0.6c7.6-2.9,15.5-4.1,23.6-2.4c15.9,3.5,26.3,13.2,31.5,28.6c0.4,1.1,0.6,2.3,0.9,3.4
	c0.6,3.2,0.8,6.4,0.8,9.7c0,25.2,0,50.3,0.1,75.5c0,2.3-0.7,2.8-2.9,2.8c-25.1-0.1-50.2-0.1-75.2,0.1
	C-20.4,489.1-21.5,488.4-21.2,485.6z M21,384.8L21,384.8c1.1,1.7,2.2,3.5,3.4,5.2c1.6,2.4,2.1,2.4,3.8,0c0.2-0.3,0.4-0.8,0.5-1.1
	c4.4-4.5,2-12.3-2.3-15.5c-5.2-3.8-12.2-2.8-16,2.5c-3.3,4.4-3,10.3,0.6,14.5c1.1,1.3,1.7,1.7,2.9-0.1c1.6-2.5,3.1-5.2,5.5-7.2
	c0.3,0.4,0.7,0.8,1,1.1C20.7,384.4,20.9,384.6,21,384.8z M49.8,443.4l0.2,0.1l0.2-0.2c2.9-1.6,5.3-3.7,7.1-6.4
	c0.5-0.7,1.4-2.1-0.7-1.9c-6.7,0.6-13.2,2-17.8,7.5c-3.3,3.6-4.7,8-5.4,13.2c5.1-4.6,10.5-8.1,15.8-11.7
	C49.6,444,49.8,443.8,49.8,443.4z M17.4,465.1c0,6.7,0,13.3-0.2,20c0,2,1.1,1.9,2.5,1.9s2.5,0,2.5-1.9c-0.1-6.8-0.1-13.6-0.1-20.5
	c0-8.5,0-17,0.2-25.5c0-1.9-1.1-1.7-2.3-1.7c-1.2,0.1-2.7-0.5-2.6,1.7C17.4,447.8,17.4,456.5,17.4,465.1z M57.1,440.7
	c-4.6,4.2-9.9,7.2-14.9,10.7c-3,2.1-6.1,4.2-8.2,7.3c-0.5,0.7-1.6,1.9,0.6,2c11.6,0.8,21.7-7.8,23-19.5c0.3-0.3,0.3-0.6,0.1-0.9
	C57.5,440.4,57.3,440.6,57.1,440.7z M25.2,429.9c2.6-2.3,5.4-4.5,8.3-6.4c3.8-2.5,7.6-5.2,11.3-7.9c1.7-1.2,3.2-2.8,4.3-4.7
	c0.5-1,0.4-1.6-1-1.5c-4.6,0.5-9.2,1.2-13.2,3.7C28.6,416.9,25.4,422.6,25.2,429.9c-0.1,0-0.2,0-0.3-0.1l0.1,0.1
	C25.1,430,25.1,429.9,25.2,429.9z M24.5,460.5c-0.1,8.3-0.1,16.5-0.2,24.8c0,1.4,0.6,1.8,1.9,1.7c0.9-0.1,1.9-0.1,2.8,0
	c1.5,0.1,1.9-0.6,1.9-2c-0.1-8.7-0.1-17.4-0.1-26.1c0.7-4.5,0.8-9.2,3.2-13.3c1.9-2.4,3.1-5.3,5.9-7.2c4.9-3.5,10.4-5.1,16.3-5.5
	c2.2-0.1,2.5-0.9,2.4-2.7c-0.1-3.1-0.4-6.2,0-9.2c0.9-5.4-3.3-7.4-6.2-10.6c-0.7,1.1-0.5,2-0.6,2.8c-1.2,9.3-4.5,17.2-13.7,21.3
	c-3.8,1.7-7.8,2.4-11.9,2.7c-1.3,0.1-2,0.5-1.9,2c0.1,2.6,0.1,5.3,0.2,7.9C24.2,451.7,24.2,456.1,24.5,460.5z M14.9,466.2
	c0.3-8.5,0.2-17.1,0-25.6c0.5-2.1,0-3.5-2.5-3.3c-0.7,0-1.4-0.2-2-0.2c-12.3-1.3-20.1-8.6-22.1-20.8c-0.3-2-0.6-4.1-1-6.7
	c-1.6,1.7-2.8,3.1-4.1,4.3c-1.7,1.5-2.3,3.1-2.2,5.3c0.2,3.7,0.1,7.5,0,11.2c-0.1,1.8,0.3,2.4,2.3,2.6c8.1,0.6,15.4,2.9,20.5,9.8
	c3.6,5.8,4.9,12.2,5.1,18.8c0,0.2,0,0.3,0,0.5c0,3.4,0,6.8,0,10.2c0,4.2,0,8.5-0.1,12.7c0,1.4,0.4,2.1,1.9,2c0.8-0.1,1.7,0,2.5,0
	c1.3,0.1,1.9-0.4,1.8-1.8C15,478.9,14.9,472.5,14.9,466.2z M39.7,394.5c6.3,6,12.6,12,18.7,17.9c0.1-4.7-0.2-9.6-2-14.4
	c-1.1-4.6-3.4-8.6-6.2-12.4c-1-1.3-2.1-2-3.8-1.9c-3.6,0.2-7.1,0-10.7,0.1c-1,0-2.4-0.6-2.8,1c-0.3,1.4-0.7,2.7,0.8,3.9
	C35.8,390.4,37.7,392.5,39.7,394.5z M6.5,469.8c0-2.1,0-4.1,0-6.2c0-0.3-0.1-0.5-0.4-0.6c-0.5,0-1-0.1-1.4-0.1
	c-0.3-0.1-0.7-0.2-1-0.2c-9.8-0.8-17.8-4.5-22.1-14c-0.1-0.1-0.2-0.2-0.5-0.3c0,7.6,0,15,0,22.5c0,4.8,0,9.6,0,14.3
	c-0.3,1.3,0.1,1.9,1.5,1.9c7.4,0,14.8,0,22.2,0c1.3,0,1.9-0.3,1.8-1.7c-0.1-4.2-0.1-8.3-0.1-12.5c0-0.8,0-1.7,0-2.5
	C6.6,470.1,6.6,469.9,6.5,469.8z M58.4,448.5c-2.9,5.8-7.2,9.9-13.1,12.1c-3.3,1.2-6.7,2.1-10.2,2.1c-1.2,0-2.3,0.1-2.3,1.9
	c0.1,6.8,0.1,13.7,0,20.5c0,1.2,0.3,1.9,1.7,1.9c7.4,0,14.8,0,22.3,0c1.2,0,1.6-0.5,1.6-1.7C58.4,473.1,58.4,460.8,58.4,448.5z
	 M49,407.3c-0.8-1-1.3-1.6-1.8-2.1c-4.2-4.3-8.4-8.5-12.6-12.8c-2.8-2.8-2.6-2.6-5.6-0.1c-1.7,1.5-1.6,2.5-0.6,4.2
	c2.1,3.6,2.9,7.5,0.9,11.5c-2.8,5.5-9.1,7.7-14.6,5.1c-5.8-2.8-8.1-9.2-5-15.3c1.5-2.9,1.8-4.9-0.8-7.2c-1.1-1-1.5-1.4-2.7-0.2
	c-4.9,5-9.8,10-14.7,15c-0.4,0.4-1.2,0.8-1,1.8c1.5,0.2,3,0.2,4.5,0.5c9.7,1.5,17.1,6.1,20.4,15.9c0.9,2.7,1.5,5.4,1.7,8.2
	c0.1,1.7-0.3,3.5,2.7,3.5c2.8,0,2.7-1.6,2.8-3.4c0-0.4,0-0.9,0.1-1.3c1-8.4,4.1-15.7,12.1-19.9C39,408.5,43.6,407.7,49,407.3z
	 M-18.9,412.6c4.2-4.1,8.1-7.9,12-11.7c4.2-4.2,8.4-8.6,12.6-12.7c1.2-1.2,0.8-2.3,0.6-3.5c-0.3-1.4-1.5-0.9-2.3-0.9
	c-3.8-0.1-7.7,0-11.5,0c-1,0-1.9,0.1-2.7,1C-16.7,392.8-19.6,402-18.9,412.6z M28.3,403.9c0-2.4-1-5.1-2.2-7.4
	c-0.6-1.1-1.3-1.3-2.4-0.9c-2.2,0.8-4.5,0.9-6.8,0.4c-3.8-0.8-3.8-0.8-5.5,3c-0.2,0.5-0.4,0.9-0.6,1.4c-1.2,3.6-0.2,6.7,2.5,9.3
	c2.5,2.4,6.7,3.1,9.8,1.6C26.3,409.7,28.1,407,28.3,403.9z M14.4,430c0-0.9,0.1-1.3,0-1.7C11.7,414.5,2.9,410.4-9,409.4
	c-1.4-0.1-1.1,0.8-0.7,1.5c0.8,1.5,2,2.8,3.3,3.9C0.1,420.3,7.9,423.9,14.4,430z M6.1,455.7C4.4,441.2-5,435.8-17,434.9
	c-1.8-0.1-1.6,0.8-0.9,1.8c1.5,2.4,3.6,4.1,5.8,5.7C-6.2,446.9,0.4,450.3,6.1,455.7z M-9.5,414.8c-0.2,0.4-0.3,0.4-0.3,0.5
	C-8,429,1.3,434.6,13.4,435.1c1.5,0.1,1.3-0.8,0.7-1.6c-1.3-2.2-3.2-3.8-5.2-5.3C3.1,423.6-3.8,420.2-9.5,414.8z M4,460.6
	c0.6-0.1,1.6,0.5,2-0.3c0.4-0.8-0.4-1.4-0.8-2c-1.2-1.8-2.9-3.1-4.6-4.4c-5.6-4.3-11.9-7.6-17.3-12.3c-0.4-0.4-0.9-0.7-1.4-0.4
	c-0.6,0.4-0.1,0.9,0,1.3C-15.5,453.9-8.7,459.5,4,460.6z M49.1,414.7c-6.4,6-14.2,9.6-20.7,15.2c-1.2,1.1-2.3,2.2-3.2,3.7
	c-0.7,1.3-0.4,1.7,1,1.6c2.9-0.1,5.7-0.7,8.5-1.6C43,431.1,49.1,423.1,49.1,414.7z M11.2,371.5c-7,1.5-12.9,4.6-17.8,9.8
	c3.8,0.3,7.5,0.3,11.1,0.3c0.8,0,1.6,0.1,1.7-1C6.8,377,8.7,374.1,11.2,371.5z M28.7,372c2.1,2.6,3.8,5.1,4.2,8.4
	c0.1,0.8,0.5,1.2,1.3,1.2c3.9,0,7.7,0,11.6,0C41.1,376.4,35.6,373,28.7,372z M19.7,394.2c1.3-0.2,3.3,0.2,3.9-1
	c0.6-1.1-1.1-2.3-1.7-3.4c0-0.1-0.1-0.1-0.1-0.2c-2.4-3.4-2.4-3.5-4.8-0.1c-0.8,1.1-2.3,2.3-1.8,3.4c0.7,1.4,2.7,0.9,4.2,1.2
	C19.4,394.2,19.5,394.2,19.7,394.2z"/>
</svg>
